<svg width="3" height="16" viewBox="0 0 3 16" fill="none" xmlns="http://www.w3.org/2000/svg">
<path d="M-6.55671e-08 1.5C-1.01779e-07 2.32843 0.671573 3 1.5 3C2.32843 3 3 2.32843 3 1.5C3 0.671573 2.32843 -2.93554e-08 1.5 -6.55671e-08C0.671573 -1.01779e-07 -2.93554e-08 0.671573 -6.55671e-08 1.5Z" fill="#8B8B8B"/>
<path d="M-6.55671e-08 14.5C-1.01779e-07 15.3284 0.671573 16 1.5 16C2.32843 16 3 15.3284 3 14.5C3 13.6716 2.32843 13 1.5 13C0.671573 13 -2.93554e-08 13.6716 -6.55671e-08 14.5Z" fill="#8B8B8B"/>
<path d="M-6.55671e-08 8C-1.01779e-07 8.82843 0.671573 9.5 1.5 9.5C2.32843 9.5 3 8.82843 3 8C3 7.17157 2.32843 6.5 1.5 6.5C0.671573 6.5 -2.93554e-08 7.17157 -6.55671e-08 8Z" fill="#8B8B8B"/>
</svg>
