<svg width="17" height="17" viewBox="0 0 17 17" fill="none" xmlns="http://www.w3.org/2000/svg">
<path d="M7.46667 1.06667C8.73247 1.06667 9.96984 1.44202 11.0223 2.14526C12.0748 2.8485 12.8951 3.84805 13.3795 5.01749C13.8639 6.18694 13.9906 7.47377 13.7437 8.71524C13.4967 9.95672 12.8872 11.0971 11.9922 11.9921C11.0971 12.8872 9.95673 13.4967 8.71525 13.7437C7.47377 13.9906 6.18694 13.8639 5.0175 13.3795C3.84805 12.8951 2.84851 12.0748 2.14526 11.0223C1.44202 9.96984 1.06667 8.73247 1.06667 7.46667C1.06667 5.76928 1.74095 4.14142 2.94119 2.94118C4.14142 1.74095 5.76928 1.06667 7.46667 1.06667ZM7.46667 0C5.9899 0 4.5463 0.437912 3.31841 1.25836C2.09053 2.07881 1.1335 3.24494 0.56837 4.6093C0.00323522 5.97365 -0.14463 7.47495 0.143473 8.92334C0.431576 10.3717 1.14271 11.7022 2.18694 12.7464C3.23117 13.7906 4.5616 14.5018 6.01 14.7899C7.45839 15.078 8.95968 14.9301 10.324 14.365C11.6884 13.7998 12.8545 12.8428 13.675 11.6149C14.4954 10.387 14.9333 8.94343 14.9333 7.46667C14.9333 5.48638 14.1467 3.58721 12.7464 2.18694C11.3461 0.786664 9.44695 0 7.46667 0Z" fill="white"/>
<path fill-rule="evenodd" clip-rule="evenodd" d="M12.1585 12.1585C12.3537 11.9632 12.6703 11.9632 12.8656 12.1585L16.3536 15.6465C16.5488 15.8417 16.5488 16.1583 16.3536 16.3536C16.1583 16.5488 15.8417 16.5488 15.6465 16.3536L12.1585 12.8656C11.9632 12.6703 11.9632 12.3537 12.1585 12.1585Z" fill="white"/>
</svg>
