<svg width="220" height="31" viewBox="0 0 220 31" fill="none" xmlns="http://www.w3.org/2000/svg">
<g id="&#208;&#161;&#208;&#187;&#208;&#190;&#208;&#185; 8">
<path id="Vector" d="M15.2384 30.4769C23.6544 30.4769 30.4769 23.6544 30.4769 15.2384C30.4769 6.82248 23.6544 0 15.2384 0C6.82248 0 0 6.82248 0 15.2384C0 23.6544 6.82248 30.4769 15.2384 30.4769Z" fill="url(#paint0_linear_1243_521)"/>
<path id="Vector_2" d="M23.6672 17.4968L27.7028 15.2383L23.6672 12.9799L26.0322 9.0027L21.4088 9.06457L21.4706 4.44113L17.4969 6.80613L15.2384 2.77051L12.98 6.80613L9.00282 4.44113L9.06469 9.06457L4.44126 9.0027L6.80626 12.9799L2.77063 15.2383L6.80626 17.4968L4.44126 21.4705L9.06813 21.4086L9.00282 26.0355L12.98 23.6671L15.2384 27.7027L17.4969 23.6671L21.4706 26.0355L21.4088 21.4086L26.0322 21.4705L23.6672 17.4968ZM20.6525 24.6193L17.215 22.5568L15.2384 26.0699L13.2756 22.5636L9.83813 24.6261L9.89313 20.6077L5.84376 20.6524L7.90626 17.2149L4.40344 15.2383L7.90626 13.2755L5.84376 9.83801L9.8622 9.89301L9.82094 5.84363L13.2584 7.90613L15.2213 4.39645L17.1875 7.90613L20.625 5.84363L20.57 9.86207L24.5919 9.80707L22.5294 13.2446L26.0391 15.2074L22.5603 17.1874L24.6228 20.6249L20.6044 20.5733L20.6525 24.6193ZM21.4466 14.0524C21.2153 13.9769 21.0031 13.8524 20.8245 13.6872C20.6459 13.5221 20.5051 13.3203 20.4117 13.0957C20.3183 12.8711 20.2746 12.629 20.2836 12.3859C20.2925 12.1428 20.3538 11.9045 20.4634 11.6874C20.7763 11.0308 20.8072 10.5118 20.5872 10.1474C20.2916 9.67988 19.6316 9.61457 18.7894 10.0133C18.5472 10.1307 18.2816 10.1918 18.0125 10.1921C17.6595 10.1892 17.3162 10.076 17.0308 9.86827C16.7454 9.66053 16.5321 9.36868 16.4209 9.03364C16.0772 8.04363 15.5822 7.83738 15.2384 7.83738C14.8947 7.83738 14.4066 8.04363 14.0525 9.03364C13.9413 9.36868 13.7281 9.66053 13.4426 9.86827C13.1572 10.076 12.8139 10.1892 12.4609 10.1921C12.1927 10.1903 11.9283 10.128 11.6875 10.0099C10.8453 9.6077 10.1853 9.66614 9.88969 10.1439C9.65938 10.5083 9.70063 11.0274 10.0134 11.6839C10.1237 11.901 10.1857 12.1394 10.1952 12.3827C10.2046 12.626 10.1614 12.8685 10.0683 13.0935C9.97523 13.3185 9.83458 13.5207 9.65601 13.6862C9.47743 13.8517 9.26516 13.9766 9.03376 14.0524C8.04376 14.3961 7.83751 14.8911 7.83751 15.2383C7.83751 15.5855 8.04376 16.0702 9.03376 16.4208C9.26516 16.4966 9.47743 16.6215 9.65601 16.787C9.83458 16.9525 9.97523 17.1547 10.0683 17.3797C10.1614 17.6047 10.2046 17.8472 10.1952 18.0905C10.1857 18.3338 10.1237 18.5722 10.0134 18.7893C9.70063 19.4458 9.66969 19.9649 9.88969 20.3293C10.1853 20.7968 10.8453 20.8655 11.6875 20.4633C11.9289 20.3467 12.1929 20.2846 12.4609 20.2811C12.8145 20.2837 13.1583 20.3972 13.4439 20.6057C13.7295 20.8142 13.9423 21.107 14.0525 21.443C14.3963 22.4296 14.8913 22.6393 15.2384 22.6393C15.5856 22.6393 16.0703 22.4296 16.4209 21.443C16.5318 21.1068 16.7453 20.8138 17.0314 20.6053C17.3176 20.3969 17.6619 20.2835 18.0159 20.2811C18.2837 20.2834 18.5478 20.3444 18.7894 20.4599C19.6316 20.8621 20.2916 20.8036 20.5872 20.3258C20.8175 19.9615 20.7763 19.4458 20.4634 18.7858C20.3538 18.5684 20.2925 18.3299 20.2835 18.0866C20.2746 17.8433 20.3182 17.6009 20.4116 17.376C20.5049 17.1512 20.6457 16.9491 20.8244 16.7836C21.003 16.6182 21.2152 16.4933 21.4466 16.4174C22.4366 16.0736 22.6428 15.5786 22.6428 15.2349C22.6428 14.8911 22.4331 14.4064 21.4466 14.0524ZM21.1681 15.6405C20.8278 15.7552 20.5159 15.9414 20.2535 16.1866C19.9911 16.4319 19.7842 16.7304 19.6468 17.0623C19.5094 17.3941 19.4446 17.7515 19.4568 18.1105C19.469 18.4694 19.5579 18.8216 19.7175 19.1433C19.9513 19.6349 19.91 19.8583 19.8894 19.8858C19.8568 19.9034 19.8196 19.9106 19.7828 19.9065C19.5586 19.8899 19.3406 19.8254 19.1434 19.7174C18.7918 19.5472 18.4066 19.4579 18.0159 19.4561C17.4904 19.4582 16.9788 19.6252 16.5532 19.9335C16.1276 20.2419 15.8096 20.6761 15.6441 21.1749C15.4619 21.6836 15.2763 21.8143 15.2384 21.8211C15.2006 21.828 15.015 21.6836 14.8328 21.1749C14.6672 20.6761 14.3492 20.2419 13.9237 19.9335C13.4981 19.6252 12.9865 19.4582 12.4609 19.4561C12.0692 19.4579 11.6828 19.5472 11.33 19.7174C11.1342 19.8257 10.9172 19.8902 10.6941 19.9065C10.659 19.9143 10.6226 19.9143 10.5875 19.9065C10.5669 19.8755 10.5256 19.6521 10.7594 19.1605C10.922 18.838 11.0133 18.4843 11.0271 18.1233C11.0408 17.7624 10.9767 17.4027 10.8391 17.0688C10.7015 16.7348 10.4936 16.4344 10.2295 16.1879C9.96543 15.9415 9.6514 15.7548 9.30876 15.6405C8.79657 15.4583 8.66594 15.2727 8.66251 15.2383C8.65907 15.2039 8.79657 15.0149 9.30876 14.8327C9.64729 14.7177 9.95744 14.5319 10.2185 14.2876C10.4796 14.0434 10.6857 13.7463 10.8229 13.4161C10.9602 13.086 11.0255 12.7304 11.0145 12.373C11.0036 12.0157 10.9166 11.6647 10.7594 11.3436C10.5256 10.8521 10.5669 10.6286 10.5875 10.6011C10.6213 10.5875 10.6577 10.5817 10.6941 10.5839C10.9209 10.594 11.1427 10.6539 11.3438 10.7593C11.6968 10.9284 12.0832 11.0165 12.4747 11.0171C13.0004 11.0156 13.5122 10.8488 13.9379 10.5403C14.3636 10.2319 14.6814 9.79738 14.8466 9.29832C15.0288 8.78613 15.2144 8.65551 15.2488 8.65207C15.2831 8.64863 15.4722 8.7827 15.6544 9.29832C15.8204 9.79682 16.1385 10.2307 16.564 10.539C16.9894 10.8473 17.5008 11.0145 18.0263 11.0171C18.4178 11.0169 18.8043 10.9287 19.1572 10.7593C19.3543 10.6512 19.5724 10.5867 19.7966 10.5702C19.8318 10.5677 19.8672 10.5736 19.8997 10.5874C19.9238 10.6149 19.9616 10.8383 19.7313 11.3299C19.5716 11.6516 19.4827 12.0038 19.4706 12.3628C19.4584 12.7217 19.5232 13.0791 19.6606 13.4109C19.798 13.7428 20.0049 14.0413 20.2673 14.2866C20.5297 14.5318 20.8415 14.718 21.1819 14.8327C21.6941 15.0149 21.8213 15.2005 21.8281 15.2349C21.835 15.2693 21.6803 15.4686 21.1681 15.6405ZM15.2384 11.3643C14.4722 11.3643 13.7232 11.5915 13.0861 12.0172C12.449 12.4428 11.9525 13.0479 11.6593 13.7558C11.3661 14.4637 11.2893 15.2426 11.4388 15.9941C11.5883 16.7456 11.9573 17.4359 12.4991 17.9777C13.0409 18.5195 13.7312 18.8885 14.4827 19.0379C15.2341 19.1874 16.0131 19.1107 16.721 18.8175C17.4289 18.5243 18.0339 18.0277 18.4596 17.3906C18.8853 16.7536 19.1125 16.0045 19.1125 15.2383C19.1116 14.2111 18.7031 13.2263 17.9768 12.5C17.2505 11.7736 16.2656 11.3652 15.2384 11.3643ZM15.2384 18.3115C14.6297 18.3121 14.0344 18.1322 13.5279 17.7944C13.0214 17.4566 12.6266 16.9761 12.3933 16.4138C12.16 15.8515 12.0988 15.2326 12.2174 14.6355C12.336 14.0384 12.6291 13.4899 13.0596 13.0594C13.49 12.629 14.0385 12.3359 14.6356 12.2173C15.2328 12.0987 15.8516 12.1599 16.4139 12.3932C16.9763 12.6265 17.4567 13.0213 17.7945 13.5278C18.1323 14.0342 18.3123 14.6295 18.3116 15.2383C18.3062 16.0517 17.9807 16.8302 17.4055 17.4054C16.8303 17.9805 16.0518 18.306 15.2384 18.3115Z" fill="white"/>
<path id="Vector_3" d="M38.9778 20.3365V8.8999H37.4515V21.7115H38.1322H38.9778H45.0106V20.3365H38.9778Z" fill="white"/>
<path id="Vector_4" d="M47.4135 21.7113H45.9835V12.8769H47.4135V21.7113ZM46.6882 9.96876C46.5102 9.96944 46.3364 10.0228 46.1888 10.1222C46.0411 10.2216 45.9262 10.3625 45.8586 10.5271C45.7909 10.6917 45.7736 10.8727 45.8087 11.0472C45.8439 11.2217 45.9299 11.3818 46.056 11.5074C46.1821 11.633 46.3426 11.7185 46.5172 11.7529C46.6918 11.7874 46.8727 11.7694 47.0371 11.7011C47.2015 11.6329 47.3419 11.5174 47.4407 11.3694C47.5395 11.2214 47.5923 11.0474 47.5923 10.8694C47.5923 10.7508 47.5689 10.6334 47.5234 10.5239C47.4779 10.4144 47.4113 10.315 47.3273 10.2313C47.2433 10.1476 47.1436 10.0814 47.0339 10.0363C46.9242 9.99127 46.8068 9.9683 46.6882 9.96876Z" fill="white"/>
<path id="Vector_5" d="M57.6572 12.8391H56.0725L53.1025 19.5044L50.1325 12.8391H48.5479L52.8207 21.7079V21.7113H53.381L57.6572 12.8391Z" fill="white"/>
<path id="Vector_6" d="M66.0206 17.4971C66.0206 17.4971 66.3643 15.2868 65.4946 14.1937C64.625 13.1005 63.5937 12.6605 61.8303 12.719C60.8106 12.7446 59.8333 13.1322 59.0731 13.8124C58.313 14.4925 57.8196 15.4209 57.6812 16.4315C57.3168 18.8858 58.324 20.4568 60.0256 21.3746C61.7271 22.2924 64.4496 21.6908 65.0856 21.4124L65.725 21.1374L65.5015 20.089C64.5023 20.4982 63.4325 20.7072 62.3528 20.7043C61.7189 20.7257 61.0925 20.5623 60.5499 20.2339C60.0073 19.9055 59.5719 19.4264 59.2968 18.8549C59.1253 18.4171 59.0412 17.95 59.0493 17.4799L66.0206 17.4971ZM60.2696 14.3724C60.7743 14.0536 61.3528 13.8705 61.9491 13.841C62.5453 13.8115 63.1391 13.9365 63.6728 14.204C64.979 14.8571 64.79 16.3558 64.79 16.3558H59.0975C59.1478 15.9629 59.2777 15.5844 59.4793 15.2434C59.6808 14.9024 59.9497 14.606 60.2696 14.3724Z" fill="white"/>
<path id="Vector_7" d="M117.539 17.4968C117.539 17.4968 117.882 15.2865 117.013 14.1933C116.143 13.1002 115.115 12.6602 113.352 12.7255C112.333 12.7502 111.356 13.1366 110.596 13.8155C109.836 14.4944 109.342 15.4215 109.203 16.4312C108.835 18.8855 109.842 20.4565 111.544 21.3743C113.245 22.2921 115.971 21.6905 116.607 21.4121L117.243 21.1371L117.019 20.0887C116.02 20.4986 114.951 20.7077 113.871 20.704C113.237 20.7249 112.611 20.5613 112.068 20.233C111.526 19.9047 111.09 19.4258 110.815 18.8546C110.643 18.4169 110.56 17.9495 110.571 17.4796L117.539 17.4968ZM111.788 14.3721C112.293 14.0536 112.872 13.8707 113.469 13.8412C114.065 13.8117 114.66 13.9366 115.194 14.2037C116.497 14.8568 116.311 16.3555 116.311 16.3555H110.615C110.667 15.9629 110.797 15.5846 110.998 15.2437C111.2 14.9028 111.468 14.6063 111.788 14.3721Z" fill="white"/>
<path id="Vector_8" d="M81.0976 13.9049C80.668 13.1281 79.2551 12.4131 77.4573 12.8737C75.6595 13.3343 75.2814 14.6474 75.2814 14.6474C75.1586 14.3323 75.0018 14.0315 74.8139 13.7503C74.4701 13.1762 73.3873 12.4715 71.6411 12.8462C69.8948 13.2209 69.5511 14.2865 69.5511 14.2865C69.5939 13.9412 69.5201 13.5916 69.3414 13.2931C69.2319 13.1097 69.0708 12.9626 68.8782 12.8703C68.6856 12.778 68.4701 12.7445 68.2586 12.774C67.9178 12.7831 67.5784 12.8222 67.2445 12.8909V13.9221C67.3786 13.9221 67.8323 13.8637 68.0076 14.094C68.2086 14.4301 68.2976 14.8213 68.262 15.2112V21.7424H69.6851V16.7959C69.6358 16.2376 69.7404 15.6764 69.9876 15.1734C70.2111 14.6715 70.8814 13.8706 72.3217 13.9118C73.762 13.9531 74.1573 15.5103 74.1573 15.9399V21.7115H75.5839V17.5865C75.5839 16.1187 75.7008 15.8093 75.8658 15.3624C76.0534 14.9492 76.3505 14.5952 76.725 14.3389C77.0995 14.0826 77.537 13.9337 77.9901 13.9084C79.1623 13.9084 79.5508 14.3071 79.8876 14.9018C80.2245 15.4965 80.2314 16.6446 80.2314 16.6446V21.7115H81.6545V16.6034C81.658 15.2456 81.5136 14.6578 81.0976 13.9049Z" fill="white"/>
<path id="Vector_9" d="M91.5096 20.8175C91.0318 20.7728 91.0181 19.9994 91.0181 19.9994V15.4344C91.0181 13.6022 89.2649 12.7188 87.2368 12.7188C85.2087 12.7188 84.0812 13.4063 84.0812 13.4063L84.3562 14.5337C85.5741 13.8672 87.0015 13.6937 88.3437 14.0491C89.7462 14.3928 89.7565 15.5272 89.7565 15.5272V16.995C89.4339 16.8205 89.094 16.68 88.7424 16.5756C88.1684 16.4003 86.154 16.0944 84.8099 16.8231C83.4659 17.5519 83.4349 18.8066 83.4349 19.5044C83.4349 20.0613 83.8818 21.8522 86.5631 21.8522C89.2443 21.8522 89.9834 20.1128 89.9834 20.1128C89.9834 20.1128 90.0109 21.285 90.5265 21.6253C91.0421 21.9656 92.1318 21.78 92.1318 21.78V20.8175C91.9317 20.836 91.7303 20.836 91.5302 20.8175H91.5096ZM89.7634 18.6931C89.683 19.0381 89.5228 19.3595 89.2959 19.6316C88.5734 20.3072 87.6174 20.6768 86.6284 20.6628C85.3977 20.6628 84.8443 20.0303 84.8443 19.1469C84.8443 18.3838 85.4287 17.5347 86.9721 17.4934C87.9396 17.4498 88.9018 17.6595 89.7634 18.1019V18.7069V18.6931Z" fill="white"/>
<path id="Vector_10" d="M100.698 15.2418C100.691 14.8315 100.571 14.431 100.353 14.0834C100.135 13.7358 99.8267 13.4541 99.4606 13.2687C98.7612 12.9381 98.0023 12.7516 97.2293 12.7203C96.4563 12.689 95.6849 12.8135 94.9609 13.0865C93.3247 13.6709 93.4141 14.9805 93.4141 15.3174C93.4141 15.6543 93.3556 16.878 95.3803 17.4005C97.405 17.923 98.9416 17.5965 99.44 18.7102C99.9384 19.824 98.6219 20.5871 98.065 20.6559C97.5081 20.7246 95.7963 20.8209 95.1878 20.288C95.0184 20.1614 94.8782 19.9997 94.7768 19.8141C94.6754 19.6284 94.6151 19.4231 94.6 19.2121H93.1562C93.1562 19.2121 93.2009 21.3949 95.8203 21.7765C98.4397 22.158 100.038 21.2677 100.595 20.4015C101.152 19.5352 101.035 18.143 100.299 17.5518C99.5638 16.9605 98.8625 16.7887 97.0097 16.5515C95.1569 16.3143 94.7719 15.8262 94.7719 15.338C94.7719 14.8499 94.8647 14.2862 95.8031 14.0009C96.7555 13.7056 97.7842 13.7805 98.6838 14.2105C99.4778 14.6437 99.3713 15.2418 99.3713 15.2418H100.698Z" fill="white"/>
<path id="Vector_11" d="M108.305 20.3259L108.463 21.4397C107.685 21.6922 106.875 21.8312 106.057 21.8522C105.639 21.8727 105.223 21.7847 104.849 21.5968C104.475 21.4089 104.156 21.1274 103.922 20.7797C103.555 20.1559 103.373 19.4406 103.397 18.7172V14.0938L101.458 14.0113V13.0625H103.469L103.592 10.3125H104.802V13.0625H108.017V14.0938H104.772V18.5419C104.772 19.6763 105.15 20.295 105.927 20.6044C106.703 20.9138 108.305 20.3259 108.305 20.3259Z" fill="white"/>
<path id="Vector_12" d="M118.917 12.8735V13.8395C118.917 13.8395 119.996 13.6023 119.996 14.6267V21.7114H121.44V16.3832C121.412 15.9661 121.504 15.5496 121.707 15.1837C121.909 14.8179 122.213 14.5182 122.581 14.3207C123.472 13.757 124.606 14.1042 124.988 14.2348C125.248 14.3398 125.493 14.4785 125.716 14.6473L126.094 13.4064C125.473 12.9541 124.722 12.7131 123.953 12.7189C122.629 12.7189 122.234 13.1348 121.956 13.3651C121.728 13.5954 121.525 13.8488 121.351 14.1214C121.351 14.1214 121.351 13.2792 120.759 12.9595C120.168 12.6398 119.099 12.8529 118.917 12.8735Z" fill="white"/>
<path id="Vector_13" d="M141.243 9.20239V21.7252H140.329V10.0377H132.797V21.7252H131.904V9.20239H141.243Z" fill="white"/>
<path id="Vector_14" d="M145.54 14.8365C146.228 13.4065 147.455 12.8875 148.957 12.8875C151.48 12.8875 152.876 14.9981 152.876 17.3768C152.876 21.4743 148.779 23.0831 145.657 20.7593V26.1803H144.819V15.7303C144.819 14.424 144.925 13.5303 143.708 13.7262L143.67 13.0112C145.104 12.7809 145.551 13.3859 145.551 14.5856L145.54 14.8365ZM145.647 19.8621C148.277 22.0656 151.999 21.0618 151.999 17.3768C151.999 15.445 150.927 13.6918 148.813 13.6918C146.919 13.6918 145.702 15.1768 145.647 16.985V19.8621Z" fill="white"/>
<path id="Vector_15" d="M157.53 21.8661C156.028 21.8661 154.471 20.9001 154.471 19.2536C154.471 17.3045 156.08 16.3558 157.816 16.3558C158.927 16.3472 160.025 16.6053 161.016 17.1086V15.7851C161.016 14.1042 159.479 13.6745 158.101 13.6745C157.136 13.6571 156.183 13.8841 155.33 14.3345L155.131 13.6195C156.084 13.1372 157.139 12.892 158.208 12.9045C160.071 12.9045 161.841 13.6573 161.841 15.8023L161.824 19.7383C161.824 20.7695 161.769 21.3676 162.913 21.2233L162.948 21.8145C161.483 22.0448 161.105 21.5258 161.16 20.168C160.48 21.4192 158.96 21.8661 157.53 21.8661ZM161.016 17.8751C160.066 17.3609 159.003 17.0904 157.922 17.0879C156.633 17.0879 155.258 17.803 155.31 19.233C155.365 20.5564 156.475 21.1476 157.671 21.1476C159.067 21.1476 160.641 20.522 161.016 19.037V17.8751Z" fill="white"/>
<path id="Vector_16" d="M167.104 16.8438C169.627 16.8438 170.95 15.6647 170.95 13.0625H171.772C171.789 15.0494 171.04 16.6238 169.091 17.2116L172.219 21.5978V21.7044H171.291L168.303 17.4831C167.902 17.5566 167.495 17.5923 167.087 17.5897H165.687V21.7147H164.828V13.0831H165.687V16.8438H167.104Z" fill="white"/>
<path id="Vector_17" d="M176.409 21.7253V13.8534H173.133V13.1006H180.524V13.8534H177.231V21.7253H176.409Z" fill="white"/>
<path id="Vector_18" d="M182.69 21.7253H182.387V13.1006H183.219V17.7515L183.109 20.1303L189.296 13.1006H189.62V21.7253H188.795V16.5346L188.884 14.6578L182.69 21.7253Z" fill="white"/>
<path id="Vector_19" d="M194.824 16.8438C197.347 16.8438 198.67 15.6647 198.67 13.0625H199.492C199.492 15.0494 198.76 16.6238 196.811 17.2116L199.922 21.5772V21.6838H199.011L196.024 17.4625C195.622 17.536 195.215 17.5716 194.807 17.5691H193.39V21.6941H192.534V13.0831H193.39V16.8438H194.824Z" fill="white"/>
<path id="Vector_20" d="M205.649 22.2239C204.789 24.2864 203.93 27.002 201.159 25.7679L201.321 25.1217C203.108 25.9295 203.754 24.6748 204.342 23.2104L204.934 21.8354L200.908 13.1901V13.1179H201.823L205.363 20.811H205.38L208.656 13.1179H209.533V13.1901L205.649 22.2239Z" fill="white"/>
<path id="Vector_21" d="M215.724 19.3974L212.413 15.0318V21.6868H211.592V13.093H211.915L215.779 18.1908L219.677 13.093H220V21.6868H219.158V15.0318L215.834 19.3974H215.724Z" fill="white"/>
</g>
<defs>
<linearGradient id="paint0_linear_1243_521" x1="15.2075" y1="0.089375" x2="15.2659" y2="30.5628" gradientUnits="userSpaceOnUse">
<stop stop-color="#0075E0"/>
<stop offset="0.23" stop-color="#0170DC"/>
<stop offset="0.52" stop-color="#0461D1"/>
<stop offset="0.84" stop-color="#0948BF"/>
<stop offset="1" stop-color="#0C38B4"/>
</linearGradient>
</defs>
</svg>
