<svg width="24" height="24" viewBox="0 0 24 24" fill="none" xmlns="http://www.w3.org/2000/svg">
<g id="ok">
<g id="icon-social-ok-regular-circle">
<g id="&#208;&#161;&#208;&#187;&#208;&#190;&#208;&#185; 2">
<g id="&#208;&#161;&#208;&#187;&#208;&#190;&#208;&#185; 1">
<path id="Vector" d="M11.457 15.5256C10.1336 15.443 8.85891 14.9957 7.7742 14.2331C7.67161 14.1305 7.4767 14.0382 7.37412 13.9356C7.26633 13.8469 7.17777 13.7372 7.11386 13.6131C7.04995 13.489 7.01203 13.3532 7.00243 13.2139C6.99283 13.0747 7.01174 12.935 7.05801 12.8033C7.10428 12.6716 7.17694 12.5507 7.27154 12.4481C7.44168 12.2558 7.669 12.1231 7.92011 12.0696C8.17123 12.0161 8.43289 12.0445 8.66668 12.1506C8.76926 12.2532 8.86159 12.2532 8.96417 12.3455C9.94032 13.0167 11.093 13.3845 12.2775 13.4028C13.462 13.421 14.6255 13.0889 15.6219 12.4481C15.6964 12.3616 15.7874 12.2907 15.8895 12.2396C15.9916 12.1886 16.1029 12.1583 16.2169 12.1506C16.4417 12.103 16.6757 12.1245 16.8881 12.2124C17.1005 12.3003 17.2814 12.4504 17.4068 12.643C17.5605 12.8298 17.6357 13.0689 17.6166 13.31C17.5974 13.5511 17.4855 13.7754 17.3042 13.9356C16.7879 14.507 16.145 14.9497 15.427 15.2281C14.7261 15.4964 13.9902 15.6623 13.2419 15.7205L13.4368 16.018L16.5144 19.0955C16.6683 19.2479 16.7701 19.4451 16.8051 19.6589C16.8401 19.8726 16.8066 20.092 16.7093 20.2855C16.6106 20.4934 16.4553 20.6692 16.2611 20.7927C16.0669 20.9161 15.8417 20.9821 15.6116 20.9831C15.4744 20.9668 15.3419 20.923 15.222 20.8543C15.1021 20.7855 14.9974 20.6932 14.914 20.583C14.1344 19.8034 13.3753 19.1263 12.6469 18.3057C12.452 18.1107 12.3494 18.1107 12.1545 18.3057L9.76433 20.6959C9.61196 20.8498 9.41476 20.9516 9.201 20.9866C8.98724 21.0216 8.76788 20.9881 8.57435 20.8908C8.39458 20.8211 8.23588 20.7061 8.11366 20.557C7.99144 20.4079 7.90985 20.2297 7.87681 20.0398C7.84378 19.8498 7.86042 19.6545 7.92512 19.4729C7.98983 19.2913 8.10039 19.1295 8.24608 19.0032L11.2518 16.0488L11.457 15.5256Z" fill="white"/>
<path id="Vector_2" d="M12.3492 11.9453C11.4645 11.9453 10.5998 11.683 9.86428 11.1915C9.12876 10.7001 8.55548 10.0015 8.21696 9.18428C7.87843 8.367 7.78986 7.4677 7.96244 6.60009C8.13502 5.73248 8.561 4.93553 9.18651 4.31001C9.81202 3.6845 10.609 3.25852 11.4766 3.08594C12.3442 2.91336 13.2435 3.00194 14.0608 3.34046C14.878 3.67899 15.5766 4.25226 16.068 4.98779C16.5595 5.72331 16.8218 6.58805 16.8218 7.47266C16.7932 8.64988 16.3128 9.77096 15.4801 10.6036C14.6475 11.4363 13.5264 11.9167 12.3492 11.9453ZM14.5342 7.47266C14.5342 7.0405 14.406 6.61805 14.166 6.25872C13.9259 5.89939 13.5846 5.61933 13.1853 5.45395C12.7861 5.28857 12.3467 5.2453 11.9229 5.32961C11.499 5.41392 11.1097 5.62202 10.8041 5.92761C10.4985 6.23319 10.2904 6.62253 10.2061 7.04638C10.1218 7.47024 10.1651 7.90958 10.3304 8.30884C10.4958 8.7081 10.7759 9.04936 11.1352 9.28946C11.4945 9.52955 11.917 9.6577 12.3492 9.6577C12.6376 9.66328 12.9243 9.61057 13.1919 9.50274C13.4595 9.3949 13.7026 9.23416 13.9066 9.03014C14.1107 8.82612 14.2714 8.58301 14.3792 8.31539C14.4871 8.04777 14.5398 7.76114 14.5342 7.47266Z" fill="white"/>
</g>
</g>
</g>
</g>
</svg>
