<svg width="24" height="24" viewBox="0 0 24 24" fill="none" xmlns="http://www.w3.org/2000/svg">
<g id="pintrest">
<g id="icon-social-pin-regular-circle">
<g id="&#208;&#161;&#208;&#187;&#208;&#190;&#208;&#185; 2">
<g id="&#208;&#161;&#208;&#187;&#208;&#190;&#208;&#185; 1">
<path id="Vector" d="M18.9975 8.01549C18.5011 4.4517 14.9374 2.66484 11.1651 3.05199C9.58004 3.19255 8.09492 3.88614 6.96972 5.01135C5.84451 6.13655 5.15092 7.62167 5.01036 9.20673C4.91109 11.2914 5.50671 12.8698 7.59138 13.3661C8.48481 11.7778 7.29357 11.48 7.09503 10.388C6.40014 5.83155 12.3464 2.65491 15.5231 5.93082C17.707 8.11476 16.3172 14.9545 12.7435 14.2596C9.16977 13.5647 14.4311 8.21403 11.7508 7.12206C9.56685 6.22863 8.37561 9.80235 9.46758 11.48C8.87196 14.4581 7.58145 17.327 8.0778 21C9.76539 19.7095 10.361 17.3369 10.8574 14.8552C11.5396 15.445 12.3587 15.8545 13.2398 16.0464C17.3 16.3442 19.4839 11.9863 18.9975 8.01549Z" fill="white"/>
</g>
</g>
</g>
</g>
</svg>
