<svg width="24" height="24" viewBox="0 0 24 24" fill="none" xmlns="http://www.w3.org/2000/svg">
<g id="vk">
<g id="icon-social-vk-regular-circle">
<g id="&#208;&#147;&#209;&#128;&#209;&#131;&#208;&#191;&#208;&#191;&#208;&#176;">
<path id="&#208;&#154;&#208;&#190;&#208;&#189;&#209;&#130;&#209;&#131;&#209;&#128;" d="M19.1387 13.1961C19.8388 13.7938 20.4907 14.4457 21.0885 15.1458C21.3855 15.4441 21.6295 15.791 21.8098 16.1714C22.114 16.6899 21.8098 17.2985 21.3928 17.2985H18.5188C18.1754 17.3363 17.8279 17.2904 17.5061 17.1648C17.1842 17.0392 16.8975 16.8376 16.6705 16.5772C16.2671 16.1899 15.8906 15.7757 15.5435 15.3374C15.398 15.1675 15.2222 15.0261 15.025 14.9204C14.9672 14.8666 14.8983 14.826 14.8232 14.8016C14.748 14.7772 14.6684 14.7696 14.59 14.7793C14.5116 14.7889 14.4362 14.8157 14.3693 14.8576C14.3023 14.8995 14.2453 14.9556 14.2023 15.0219C14.2023 15.1233 14.1009 15.1233 14.1009 15.2247C13.9024 15.6441 13.7985 16.1019 13.7966 16.5659C13.7966 17.2872 13.5937 17.3886 12.8724 17.49C11.3951 17.6071 9.91548 17.294 8.61225 16.5884C7.49881 15.9181 6.55109 15.0051 5.83976 13.9174C4.39649 11.8528 3.16554 9.64762 2.16565 7.33552C1.86135 6.71566 1.96278 6.41136 2.58265 6.41136H5.45657C5.64571 6.39653 5.83375 6.45137 5.98529 6.56553C6.13682 6.6797 6.24138 6.84533 6.2793 7.03122C6.79176 8.28374 7.41011 9.49028 8.12763 10.6377C8.31102 10.9571 8.55623 11.2368 8.84892 11.4604C8.88447 11.5093 8.93108 11.5491 8.98495 11.5766C9.03881 11.604 9.09841 11.6183 9.15886 11.6183C9.21931 11.6183 9.2789 11.604 9.33277 11.5766C9.38663 11.5491 9.43324 11.5093 9.46879 11.4604C9.57022 11.359 9.57022 11.359 9.57022 11.2576C9.57022 11.1561 9.67165 10.7391 9.77309 10.5363C9.87566 9.64888 9.87566 8.75262 9.77309 7.86522C9.75455 7.61601 9.65371 7.38002 9.48642 7.19436C9.31913 7.00871 9.09487 6.88392 8.84892 6.83963C8.54463 6.7382 8.54463 6.63676 8.74749 6.42263C8.85061 6.2773 8.99058 6.16206 9.15301 6.08877C9.31544 6.01548 9.49446 5.98678 9.67165 6.00563H12.9626C13.481 6.10706 13.5824 6.30993 13.6839 6.82836V10.525C13.6839 10.7279 13.7853 11.3477 14.1009 11.4492C14.2235 11.489 14.3568 11.4795 14.4725 11.4226C14.5882 11.3658 14.6772 11.2662 14.7207 11.1449C15.4544 10.2637 16.0753 9.29449 16.5691 8.25969C16.7719 7.84268 16.9861 7.33552 17.1889 6.81709C17.2418 6.66737 17.3393 6.53743 17.4683 6.44475C17.5972 6.35207 17.7515 6.30109 17.9102 6.29866H21.404C21.9225 6.40009 22.1253 6.60295 21.9225 7.12139C21.6345 7.90759 21.2153 8.63926 20.6827 9.28528C20.1643 10.0066 19.5557 10.7279 19.0373 11.4492C18.5188 12.1705 18.5188 12.5762 19.1387 13.1961Z" fill="white"/>
</g>
</g>
</g>
</svg>
