<svg width="24" height="24" viewBox="0 0 24 24" fill="none" xmlns="http://www.w3.org/2000/svg">
<g id="youtube">
<g id = "icon-social-youtube-regular-circle">
<path id="Vector" d="M22.5261 6.50362C22.2611 5.52463 21.4842 4.7529 20.499 4.48929C18.6992 4 11.4997 4 11.4997 4C11.4997 4 4.30058 4 2.50075 4.47074C1.53451 4.73407 0.738686 5.52477 0.473646 6.50362C0 8.29172 0 12 0 12C0 12 0 15.727 0.473646 17.4964C0.738966 18.4752 1.51555 19.247 2.50089 19.5106C4.31953 20 11.5 20 11.5 20C11.5 20 18.6992 20 20.499 19.5293C21.4843 19.2658 22.2611 18.4941 22.5264 17.5152C22.9999 15.727 22.9999 12.0188 22.9999 12.0188C22.9999 12.0188 23.0189 8.29172 22.5261 6.50362ZM9.2076 15.4258V8.57416L15.1943 12L9.2076 15.4258Z" fill="white"/>
</g>
</g>
</svg>
