<svg width="222" height="34" viewBox="0 0 222 34" fill="none" xmlns="http://www.w3.org/2000/svg">
<path d="M28.4939 20.0789L34 17L28.4939 13.9211L31.7239 8.5L25.415 8.585L25.5 2.27611L20.0789 5.50611L17 0L13.9211 5.50611L8.5 2.27611L8.585 8.585L2.27611 8.5L5.50611 13.9211L0 17L5.50611 20.0789L2.27611 25.5L8.585 25.415L8.5 31.7239L13.9211 28.4939L17 34L20.0789 28.4939L25.5 31.7239L25.415 25.415L31.7239 25.5L28.4939 20.0789ZM24.3856 29.7878L19.6633 26.9544L17 31.7711L14.3272 26.9922L9.605 29.8256L9.68056 24.3478L4.20278 24.4233L7.03611 19.7011L2.22889 17L7.01722 14.3272L4.18389 9.605L9.66167 9.68056L9.58611 4.20278L14.3083 7.03611L17 2.22889L19.6728 7.00778L24.395 4.17444L24.3194 9.65222L29.7972 9.57667L26.9639 14.2989L31.7711 17L26.9922 19.6728L29.8256 24.395L24.3478 24.3194L24.3856 29.7878ZM25.5 15.385C25.1842 15.2819 24.8945 15.1117 24.6507 14.8861C24.4069 14.6605 24.2147 14.3849 24.0873 14.0781C23.9599 13.7714 23.9004 13.4407 23.9127 13.1087C23.9251 12.7768 24.0091 12.4515 24.1589 12.155C24.3616 11.8482 24.4836 11.4951 24.5133 11.1285C24.543 10.7619 24.4796 10.3938 24.3289 10.0583C23.9228 9.41611 23.0256 9.33111 21.8733 9.87889C21.5436 10.039 21.1821 10.1229 20.8156 10.1244C20.3234 10.1242 19.8442 9.96632 19.4482 9.67401C19.0522 9.38169 18.7602 8.97027 18.615 8.5C18.1333 7.14944 17.4722 6.86611 17 6.86611C16.5278 6.86611 15.8667 7.14944 15.385 8.5C15.2401 8.9624 14.9531 9.36736 14.5648 9.65729C14.1765 9.94723 13.7067 10.1074 13.2222 10.115C12.8556 10.1138 12.4941 10.0298 12.1644 9.86944C11.0122 9.32167 10.115 9.41611 9.70889 10.0489C9.55821 10.3844 9.49478 10.7525 9.5245 11.1191C9.55422 11.4856 9.67613 11.8387 9.87889 12.1456C10.0298 12.4449 10.1135 12.7735 10.1243 13.1086C10.1351 13.4436 10.0727 13.7769 9.94144 14.0854C9.81016 14.3938 9.61317 14.6699 9.36421 14.8943C9.11526 15.1188 8.82033 15.2862 8.5 15.385C7.14944 15.8667 6.86611 16.5278 6.86611 17C6.86611 17.4722 7.14944 18.1333 8.5 18.615C8.81575 18.7181 9.10547 18.8883 9.3493 19.1139C9.59314 19.3395 9.78533 19.6151 9.91271 19.9219C10.0401 20.2286 10.0996 20.5593 10.0873 20.8913C10.0749 21.2232 9.99094 21.5485 9.84111 21.845C9.63835 22.1518 9.51645 22.5049 9.48673 22.8715C9.457 23.2381 9.52043 23.6062 9.67111 23.9417C10.0772 24.5839 10.9744 24.6689 12.1267 24.1211C12.4688 23.959 12.8437 23.8782 13.2222 23.885C13.7067 23.8926 14.1765 24.0528 14.5648 24.3427C14.9531 24.6326 15.2401 25.0376 15.385 25.5C15.8667 26.8506 16.5278 27.1339 17 27.1339C17.4722 27.1339 18.1333 26.8506 18.615 25.5C18.7599 25.0376 19.0469 24.6326 19.4352 24.3427C19.8235 24.0528 20.2933 23.8926 20.7778 23.885C21.1443 23.8869 21.5057 23.9708 21.8356 24.1306C22.9878 24.6783 23.885 24.5839 24.2911 23.9511C24.4418 23.6156 24.5052 23.2475 24.4755 22.8809C24.4458 22.5144 24.3239 22.1613 24.1211 21.8544C23.9702 21.5551 23.8865 21.2265 23.8757 20.8914C23.8649 20.5564 23.9273 20.2231 24.0586 19.9146C24.1898 19.6062 24.3868 19.3301 24.6358 19.1057C24.8847 18.8812 25.1797 18.7138 25.5 18.615C26.8506 18.1333 27.1339 17.4722 27.1339 17C27.1339 16.5278 26.8128 15.8667 25.5 15.385ZM25.1222 17.5478C24.6579 17.7042 24.2324 17.9583 23.8746 18.2929C23.5167 18.6276 23.2348 19.0351 23.0477 19.488C22.8607 19.9409 22.7729 20.4286 22.7902 20.9182C22.8076 21.4079 22.9297 21.8882 23.1483 22.3267C23.4694 22.9972 23.4128 23.2711 23.3844 23.3372C23.3379 23.3488 23.2893 23.3488 23.2428 23.3372C22.9381 23.3159 22.6417 23.2289 22.3739 23.0822C21.8745 22.8504 21.3282 22.7373 20.7778 22.7517C20.0631 22.7541 19.3672 22.9805 18.7878 23.3989C18.2085 23.8173 17.7748 24.4068 17.5478 25.0844C17.3022 25.7739 17.0472 25.9533 17 25.9628C16.9528 25.9722 16.6978 25.7739 16.4522 25.0844C16.2252 24.4068 15.7915 23.8173 15.2122 23.3989C14.6328 22.9805 13.9369 22.7541 13.2222 22.7517C12.6887 22.7548 12.1627 22.8774 11.6828 23.1106C11.4149 23.2573 11.1185 23.3443 10.8139 23.3656C10.7673 23.3764 10.7188 23.3764 10.6722 23.3656C10.6722 23.3656 10.5872 23.0256 10.9083 22.355C11.127 21.9165 11.2491 21.4363 11.2664 20.9466C11.2838 20.4569 11.196 19.9692 11.0089 19.5163C10.8219 19.0635 10.5399 18.656 10.1821 18.3213C9.82423 17.9866 9.3988 17.7325 8.93444 17.5761C8.23556 17.3306 8.05611 17.0756 8.05611 17.0283C8.05611 16.9811 8.23556 16.7261 8.93444 16.4806C9.3988 16.3242 9.82423 16.0701 10.1821 15.7354C10.5399 15.4007 10.8219 14.9932 11.0089 14.5403C11.196 14.0875 11.2838 13.5998 11.2664 13.1101C11.2491 12.6204 11.127 12.1402 10.9083 11.7017C10.5872 11.0311 10.6439 10.7572 10.6722 10.6911C10.7188 10.6799 10.7673 10.6799 10.8139 10.6911C11.1184 10.713 11.4147 10.7999 11.6828 10.9461C12.1627 11.1793 12.6887 11.3019 13.2222 11.305C13.9369 11.3025 14.6328 11.0762 15.2122 10.6578C15.7915 10.2393 16.2252 9.64986 16.4522 8.97222C16.6978 8.27333 16.9528 8.09389 17 8.09389C17.0472 8.09389 17.3022 8.27333 17.5478 8.97222C17.7843 9.63928 18.2221 10.2165 18.8007 10.6242C19.3792 11.0318 20.07 11.2499 20.7778 11.2483C21.3106 11.2485 21.8367 11.1291 22.3172 10.8989C22.5852 10.7524 22.8815 10.6655 23.1861 10.6439C23.2327 10.6327 23.2812 10.6327 23.3278 10.6439C23.3278 10.6439 23.4128 10.9839 23.0917 11.6544C22.873 12.0929 22.7509 12.5732 22.7335 13.0629C22.7162 13.5525 22.804 14.0402 22.9911 14.4931C23.1781 14.946 23.4601 15.3535 23.8179 15.6882C24.1758 16.0229 24.6012 16.277 25.0656 16.4333C25.7644 16.6789 25.9439 16.9339 25.9439 16.9811C25.9439 17.0283 25.7833 17.3022 25.0844 17.5478H25.1222ZM17 11.7206C15.9558 11.7206 14.9351 12.0302 14.0669 12.6103C13.1987 13.1904 12.522 14.015 12.1224 14.9796C11.7228 15.9443 11.6183 17.0059 11.822 18.03C12.0257 19.0541 12.5285 19.9948 13.2669 20.7331C14.0052 21.4715 14.9459 21.9743 15.97 22.178C16.9941 22.3817 18.0557 22.2772 19.0204 21.8776C19.985 21.478 20.8096 20.8013 21.3897 19.9331C21.9698 19.0649 22.2794 18.0442 22.2794 17C22.2769 15.6006 21.7199 14.2592 20.7304 13.2696C19.7408 12.2801 18.3994 11.7231 17 11.7206ZM17 21.165C16.1694 21.165 15.3576 20.9183 14.6674 20.4563C13.9772 19.9942 13.4398 19.3377 13.1232 18.5698C12.8067 17.8019 12.7253 16.9573 12.8894 16.1431C13.0535 15.3289 13.4557 14.5818 14.045 13.9965C14.6343 13.4112 15.3841 13.0141 16.1994 12.8555C17.0147 12.6969 17.8587 12.784 18.6244 13.1057C19.3902 13.4275 20.0431 13.9693 20.5004 14.6626C20.9578 15.3559 21.1989 16.1695 21.1933 17C21.1908 18.1114 20.7482 19.1765 19.9624 19.9624C19.1765 20.7482 18.1114 21.1908 17 21.1933V21.165Z" fill="white"/>
<path d="M51.5801 18.4629H47.5859L46.6582 18.082C45.6296 17.7565 44.8385 17.2585 44.2852 16.5879C43.7318 15.9108 43.4551 15.071 43.4551 14.0684C43.4551 13.1504 43.6569 12.3724 44.0605 11.7344C44.4707 11.0964 45.0501 10.6113 45.7988 10.2793C46.554 9.94727 47.446 9.78125 48.4746 9.78125H53.0254V24H51.1406V11.3242H48.4746C47.4329 11.3242 46.6484 11.5716 46.1211 12.0664C45.6003 12.5612 45.3398 13.2285 45.3398 14.0684C45.3398 14.6152 45.4538 15.1035 45.6816 15.5332C45.916 15.9629 46.2611 16.3014 46.7168 16.5488C47.1725 16.7962 47.7389 16.9199 48.416 16.9199H51.5898L51.5801 18.4629ZM48.377 17.4863L44.9199 24H42.918L46.4727 17.4863H48.377ZM57.957 15.4648V28.0625H56.1406V13.4336H57.8008L57.957 15.4648ZM65.0762 18.6289V18.834C65.0762 19.6022 64.985 20.3151 64.8027 20.9727C64.6204 21.6237 64.3535 22.1901 64.002 22.6719C63.6569 23.1536 63.2305 23.528 62.7227 23.7949C62.2148 24.0618 61.6322 24.1953 60.9746 24.1953C60.304 24.1953 59.7116 24.0846 59.1973 23.8633C58.6829 23.6419 58.2467 23.3197 57.8887 22.8965C57.5306 22.4733 57.2441 21.9655 57.0293 21.373C56.821 20.7806 56.6777 20.1133 56.5996 19.3711V18.2773C56.6777 17.4961 56.8242 16.7962 57.0391 16.1777C57.2539 15.5592 57.5371 15.0319 57.8887 14.5957C58.2467 14.153 58.6797 13.8177 59.1875 13.5898C59.6953 13.3555 60.2812 13.2383 60.9453 13.2383C61.6094 13.2383 62.1986 13.3685 62.7129 13.6289C63.2272 13.8828 63.6602 14.2474 64.0117 14.7227C64.3633 15.1979 64.627 15.7676 64.8027 16.4316C64.985 17.0892 65.0762 17.8216 65.0762 18.6289ZM63.2598 18.834V18.6289C63.2598 18.1016 63.2044 17.6068 63.0938 17.1445C62.9831 16.6758 62.8105 16.2656 62.5762 15.9141C62.3483 15.556 62.0553 15.276 61.6973 15.0742C61.3392 14.8659 60.9128 14.7617 60.418 14.7617C59.9622 14.7617 59.5651 14.8398 59.2266 14.9961C58.8945 15.1523 58.6113 15.3639 58.377 15.6309C58.1426 15.8913 57.9505 16.1908 57.8008 16.5293C57.6576 16.8613 57.5501 17.2064 57.4785 17.5645V20.0938C57.6087 20.5495 57.791 20.9792 58.0254 21.3828C58.2598 21.7799 58.5723 22.1022 58.9629 22.3496C59.3535 22.5905 59.8451 22.7109 60.4375 22.7109C60.9258 22.7109 61.3457 22.61 61.6973 22.4082C62.0553 22.1999 62.3483 21.9167 62.5762 21.5586C62.8105 21.2005 62.9831 20.7904 63.0938 20.3281C63.2044 19.8594 63.2598 19.3613 63.2598 18.834ZM73.4551 21.5977L77.0488 13.4336H78.7871L74.0801 24H72.8301L68.1426 13.4336H69.8809L73.4551 21.5977ZM69.3535 13.4336V24H67.5469V13.4336H69.3535ZM77.498 24V13.4336H79.3145V24H77.498ZM88.4551 22.1934V16.7539C88.4551 16.3372 88.3704 15.9759 88.2012 15.6699C88.0384 15.3574 87.791 15.1165 87.459 14.9473C87.127 14.778 86.7168 14.6934 86.2285 14.6934C85.7728 14.6934 85.3724 14.7715 85.0273 14.9277C84.6888 15.084 84.4219 15.2891 84.2266 15.543C84.0378 15.7969 83.9434 16.0703 83.9434 16.3633H82.1367C82.1367 15.9857 82.2344 15.6113 82.4297 15.2402C82.625 14.8691 82.9049 14.5339 83.2695 14.2344C83.6406 13.9284 84.0833 13.6875 84.5977 13.5117C85.1185 13.3294 85.6979 13.2383 86.3359 13.2383C87.1042 13.2383 87.7812 13.3685 88.3672 13.6289C88.9596 13.8893 89.4219 14.2832 89.7539 14.8105C90.0924 15.3314 90.2617 15.9857 90.2617 16.7734V21.6953C90.2617 22.0469 90.291 22.4212 90.3496 22.8184C90.4147 23.2155 90.5091 23.5573 90.6328 23.8438V24H88.748C88.6569 23.7917 88.5853 23.515 88.5332 23.1699C88.4811 22.8184 88.4551 22.4928 88.4551 22.1934ZM88.7676 17.5938L88.7871 18.8633H86.9609C86.4466 18.8633 85.9876 18.9056 85.584 18.9902C85.1803 19.0684 84.8418 19.1888 84.5684 19.3516C84.2949 19.5143 84.0866 19.7194 83.9434 19.9668C83.8001 20.2077 83.7285 20.4909 83.7285 20.8164C83.7285 21.1484 83.8034 21.4512 83.9531 21.7246C84.1029 21.998 84.3275 22.2161 84.627 22.3789C84.9329 22.5352 85.3073 22.6133 85.75 22.6133C86.3034 22.6133 86.7917 22.4961 87.2148 22.2617C87.638 22.0273 87.9733 21.7409 88.2207 21.4023C88.4746 21.0638 88.6113 20.735 88.6309 20.416L89.4023 21.2852C89.3568 21.5586 89.2331 21.8613 89.0312 22.1934C88.8294 22.5254 88.5592 22.8444 88.2207 23.1504C87.8887 23.4499 87.4915 23.7005 87.0293 23.9023C86.5736 24.0977 86.0592 24.1953 85.4863 24.1953C84.7702 24.1953 84.1419 24.0553 83.6016 23.7754C83.0677 23.4954 82.651 23.1211 82.3516 22.6523C82.0586 22.1771 81.9121 21.6465 81.9121 21.0605C81.9121 20.4941 82.0228 19.9961 82.2441 19.5664C82.4655 19.1302 82.7845 18.7689 83.2012 18.4824C83.6178 18.1895 84.1191 17.9681 84.7051 17.8184C85.291 17.6686 85.9453 17.5938 86.668 17.5938H88.7676ZM94.9102 15.4648V28.0625H93.0938V13.4336H94.7539L94.9102 15.4648ZM102.029 18.6289V18.834C102.029 19.6022 101.938 20.3151 101.756 20.9727C101.574 21.6237 101.307 22.1901 100.955 22.6719C100.61 23.1536 100.184 23.528 99.6758 23.7949C99.168 24.0618 98.5853 24.1953 97.9277 24.1953C97.2572 24.1953 96.6647 24.0846 96.1504 23.8633C95.6361 23.6419 95.1999 23.3197 94.8418 22.8965C94.4837 22.4733 94.1973 21.9655 93.9824 21.373C93.7741 20.7806 93.6309 20.1133 93.5527 19.3711V18.2773C93.6309 17.4961 93.7773 16.7962 93.9922 16.1777C94.207 15.5592 94.4902 15.0319 94.8418 14.5957C95.1999 14.153 95.6328 13.8177 96.1406 13.5898C96.6484 13.3555 97.2344 13.2383 97.8984 13.2383C98.5625 13.2383 99.1517 13.3685 99.666 13.6289C100.18 13.8828 100.613 14.2474 100.965 14.7227C101.316 15.1979 101.58 15.7676 101.756 16.4316C101.938 17.0892 102.029 17.8216 102.029 18.6289ZM100.213 18.834V18.6289C100.213 18.1016 100.158 17.6068 100.047 17.1445C99.9362 16.6758 99.7637 16.2656 99.5293 15.9141C99.3014 15.556 99.0085 15.276 98.6504 15.0742C98.2923 14.8659 97.8659 14.7617 97.3711 14.7617C96.9154 14.7617 96.5182 14.8398 96.1797 14.9961C95.8477 15.1523 95.5645 15.3639 95.3301 15.6309C95.0957 15.8913 94.9036 16.1908 94.7539 16.5293C94.6107 16.8613 94.5033 17.2064 94.4316 17.5645V20.0938C94.5618 20.5495 94.7441 20.9792 94.9785 21.3828C95.2129 21.7799 95.5254 22.1022 95.916 22.3496C96.3066 22.5905 96.7982 22.7109 97.3906 22.7109C97.8789 22.7109 98.2988 22.61 98.6504 22.4082C99.0085 22.1999 99.3014 21.9167 99.5293 21.5586C99.7637 21.2005 99.9362 20.7904 100.047 20.3281C100.158 19.8594 100.213 19.3613 100.213 18.834ZM106.297 13.4336V24H104.49V13.4336H106.297ZM113.23 13.4336L108.221 19.4883H105.691L105.418 17.9062H107.488L111.033 13.4336H113.23ZM111.287 24L107.4 19.2148L108.562 17.9062L113.582 24H111.287ZM121.385 22.1934V16.7539C121.385 16.3372 121.3 15.9759 121.131 15.6699C120.968 15.3574 120.721 15.1165 120.389 14.9473C120.057 14.778 119.646 14.6934 119.158 14.6934C118.702 14.6934 118.302 14.7715 117.957 14.9277C117.618 15.084 117.352 15.2891 117.156 15.543C116.967 15.7969 116.873 16.0703 116.873 16.3633H115.066C115.066 15.9857 115.164 15.6113 115.359 15.2402C115.555 14.8691 115.835 14.5339 116.199 14.2344C116.57 13.9284 117.013 13.6875 117.527 13.5117C118.048 13.3294 118.628 13.2383 119.266 13.2383C120.034 13.2383 120.711 13.3685 121.297 13.6289C121.889 13.8893 122.352 14.2832 122.684 14.8105C123.022 15.3314 123.191 15.9857 123.191 16.7734V21.6953C123.191 22.0469 123.221 22.4212 123.279 22.8184C123.344 23.2155 123.439 23.5573 123.562 23.8438V24H121.678C121.587 23.7917 121.515 23.515 121.463 23.1699C121.411 22.8184 121.385 22.4928 121.385 22.1934ZM121.697 17.5938L121.717 18.8633H119.891C119.376 18.8633 118.917 18.9056 118.514 18.9902C118.11 19.0684 117.771 19.1888 117.498 19.3516C117.225 19.5143 117.016 19.7194 116.873 19.9668C116.73 20.2077 116.658 20.4909 116.658 20.8164C116.658 21.1484 116.733 21.4512 116.883 21.7246C117.033 21.998 117.257 22.2161 117.557 22.3789C117.863 22.5352 118.237 22.6133 118.68 22.6133C119.233 22.6133 119.721 22.4961 120.145 22.2617C120.568 22.0273 120.903 21.7409 121.15 21.4023C121.404 21.0638 121.541 20.735 121.561 20.416L122.332 21.2852C122.286 21.5586 122.163 21.8613 121.961 22.1934C121.759 22.5254 121.489 22.8444 121.15 23.1504C120.818 23.4499 120.421 23.7005 119.959 23.9023C119.503 24.0977 118.989 24.1953 118.416 24.1953C117.7 24.1953 117.072 24.0553 116.531 23.7754C115.997 23.4954 115.581 23.1211 115.281 22.6523C114.988 22.1771 114.842 21.6465 114.842 21.0605C114.842 20.4941 114.952 19.9961 115.174 19.5664C115.395 19.1302 115.714 18.7689 116.131 18.4824C116.548 18.1895 117.049 17.9681 117.635 17.8184C118.221 17.6686 118.875 17.5938 119.598 17.5938H121.697ZM131.863 9.78125H133.689L138.348 21.373L142.996 9.78125H144.832L139.051 24H137.625L131.863 9.78125ZM131.268 9.78125H132.879L133.143 18.4531V24H131.268V9.78125ZM143.807 9.78125H145.418V24H143.543V18.4531L143.807 9.78125ZM154.686 22.1934V16.7539C154.686 16.3372 154.601 15.9759 154.432 15.6699C154.269 15.3574 154.021 15.1165 153.689 14.9473C153.357 14.778 152.947 14.6934 152.459 14.6934C152.003 14.6934 151.603 14.7715 151.258 14.9277C150.919 15.084 150.652 15.2891 150.457 15.543C150.268 15.7969 150.174 16.0703 150.174 16.3633H148.367C148.367 15.9857 148.465 15.6113 148.66 15.2402C148.855 14.8691 149.135 14.5339 149.5 14.2344C149.871 13.9284 150.314 13.6875 150.828 13.5117C151.349 13.3294 151.928 13.2383 152.566 13.2383C153.335 13.2383 154.012 13.3685 154.598 13.6289C155.19 13.8893 155.652 14.2832 155.984 14.8105C156.323 15.3314 156.492 15.9857 156.492 16.7734V21.6953C156.492 22.0469 156.521 22.4212 156.58 22.8184C156.645 23.2155 156.74 23.5573 156.863 23.8438V24H154.979C154.887 23.7917 154.816 23.515 154.764 23.1699C154.712 22.8184 154.686 22.4928 154.686 22.1934ZM154.998 17.5938L155.018 18.8633H153.191C152.677 18.8633 152.218 18.9056 151.814 18.9902C151.411 19.0684 151.072 19.1888 150.799 19.3516C150.525 19.5143 150.317 19.7194 150.174 19.9668C150.031 20.2077 149.959 20.4909 149.959 20.8164C149.959 21.1484 150.034 21.4512 150.184 21.7246C150.333 21.998 150.558 22.2161 150.857 22.3789C151.163 22.5352 151.538 22.6133 151.98 22.6133C152.534 22.6133 153.022 22.4961 153.445 22.2617C153.868 22.0273 154.204 21.7409 154.451 21.4023C154.705 21.0638 154.842 20.735 154.861 20.416L155.633 21.2852C155.587 21.5586 155.464 21.8613 155.262 22.1934C155.06 22.5254 154.79 22.8444 154.451 23.1504C154.119 23.4499 153.722 23.7005 153.26 23.9023C152.804 24.0977 152.29 24.1953 151.717 24.1953C151.001 24.1953 150.372 24.0553 149.832 23.7754C149.298 23.4954 148.882 23.1211 148.582 22.6523C148.289 22.1771 148.143 21.6465 148.143 21.0605C148.143 20.4941 148.253 19.9961 148.475 19.5664C148.696 19.1302 149.015 18.7689 149.432 18.4824C149.848 18.1895 150.35 17.9681 150.936 17.8184C151.521 17.6686 152.176 17.5938 152.898 17.5938H154.998ZM163.562 22.7109C163.992 22.7109 164.389 22.623 164.754 22.4473C165.118 22.2715 165.418 22.0306 165.652 21.7246C165.887 21.4121 166.02 21.0573 166.053 20.6602H167.771C167.739 21.2852 167.527 21.8678 167.137 22.4082C166.753 22.9421 166.248 23.375 165.623 23.707C164.998 24.0326 164.311 24.1953 163.562 24.1953C162.768 24.1953 162.075 24.0553 161.482 23.7754C160.896 23.4954 160.408 23.1113 160.018 22.623C159.633 22.1348 159.344 21.5749 159.148 20.9434C158.96 20.3053 158.865 19.6315 158.865 18.9219V18.5117C158.865 17.8021 158.96 17.1315 159.148 16.5C159.344 15.862 159.633 15.2988 160.018 14.8105C160.408 14.3223 160.896 13.9382 161.482 13.6582C162.075 13.3783 162.768 13.2383 163.562 13.2383C164.389 13.2383 165.112 13.4076 165.73 13.7461C166.349 14.0781 166.834 14.5339 167.186 15.1133C167.544 15.6862 167.739 16.3372 167.771 17.0664H166.053C166.02 16.6302 165.896 16.2363 165.682 15.8848C165.473 15.5332 165.187 15.2533 164.822 15.0449C164.464 14.8301 164.044 14.7227 163.562 14.7227C163.009 14.7227 162.544 14.8333 162.166 15.0547C161.795 15.2695 161.499 15.5625 161.277 15.9336C161.062 16.2982 160.906 16.7051 160.809 17.1543C160.717 17.597 160.672 18.0495 160.672 18.5117V18.9219C160.672 19.3841 160.717 19.8398 160.809 20.2891C160.9 20.7383 161.053 21.1452 161.268 21.5098C161.489 21.8743 161.785 22.1673 162.156 22.3887C162.534 22.6035 163.003 22.7109 163.562 22.7109ZM174.109 13.4336V24H172.293V13.4336H174.109ZM177.654 13.4336V14.8984H168.816V13.4336H177.654ZM183.035 24.1953C182.299 24.1953 181.632 24.0716 181.033 23.8242C180.441 23.5703 179.93 23.2155 179.5 22.7598C179.077 22.304 178.751 21.7637 178.523 21.1387C178.296 20.5137 178.182 19.8301 178.182 19.0879V18.6777C178.182 17.8184 178.309 17.0534 178.562 16.3828C178.816 15.7057 179.161 15.1328 179.598 14.6641C180.034 14.1953 180.529 13.8405 181.082 13.5996C181.635 13.3587 182.208 13.2383 182.801 13.2383C183.556 13.2383 184.207 13.3685 184.754 13.6289C185.307 13.8893 185.76 14.2539 186.111 14.7227C186.463 15.1849 186.723 15.7318 186.893 16.3633C187.062 16.9883 187.146 17.6719 187.146 18.4141V19.2246H179.256V17.75H185.34V17.6133C185.314 17.1445 185.216 16.6888 185.047 16.2461C184.884 15.8034 184.624 15.4388 184.266 15.1523C183.908 14.8659 183.419 14.7227 182.801 14.7227C182.391 14.7227 182.013 14.8105 181.668 14.9863C181.323 15.1556 181.027 15.4095 180.779 15.748C180.532 16.0866 180.34 16.5 180.203 16.9883C180.066 17.4766 179.998 18.0397 179.998 18.6777V19.0879C179.998 19.5892 180.066 20.0612 180.203 20.5039C180.346 20.9401 180.551 21.3242 180.818 21.6562C181.092 21.9883 181.421 22.2487 181.805 22.4375C182.195 22.6263 182.638 22.7207 183.133 22.7207C183.771 22.7207 184.311 22.5905 184.754 22.3301C185.197 22.0697 185.584 21.7214 185.916 21.2852L187.01 22.1543C186.782 22.4993 186.492 22.8281 186.141 23.1406C185.789 23.4531 185.356 23.707 184.842 23.9023C184.334 24.0977 183.732 24.1953 183.035 24.1953ZM191.062 15.4648V28.0625H189.246V13.4336H190.906L191.062 15.4648ZM198.182 18.6289V18.834C198.182 19.6022 198.09 20.3151 197.908 20.9727C197.726 21.6237 197.459 22.1901 197.107 22.6719C196.762 23.1536 196.336 23.528 195.828 23.7949C195.32 24.0618 194.738 24.1953 194.08 24.1953C193.41 24.1953 192.817 24.0846 192.303 23.8633C191.788 23.6419 191.352 23.3197 190.994 22.8965C190.636 22.4733 190.35 21.9655 190.135 21.373C189.926 20.7806 189.783 20.1133 189.705 19.3711V18.2773C189.783 17.4961 189.93 16.7962 190.145 16.1777C190.359 15.5592 190.643 15.0319 190.994 14.5957C191.352 14.153 191.785 13.8177 192.293 13.5898C192.801 13.3555 193.387 13.2383 194.051 13.2383C194.715 13.2383 195.304 13.3685 195.818 13.6289C196.333 13.8828 196.766 14.2474 197.117 14.7227C197.469 15.1979 197.732 15.7676 197.908 16.4316C198.09 17.0892 198.182 17.8216 198.182 18.6289ZM196.365 18.834V18.6289C196.365 18.1016 196.31 17.6068 196.199 17.1445C196.089 16.6758 195.916 16.2656 195.682 15.9141C195.454 15.556 195.161 15.276 194.803 15.0742C194.445 14.8659 194.018 14.7617 193.523 14.7617C193.068 14.7617 192.671 14.8398 192.332 14.9961C192 15.1523 191.717 15.3639 191.482 15.6309C191.248 15.8913 191.056 16.1908 190.906 16.5293C190.763 16.8613 190.656 17.2064 190.584 17.5645V20.0938C190.714 20.5495 190.896 20.9792 191.131 21.3828C191.365 21.7799 191.678 22.1022 192.068 22.3496C192.459 22.5905 192.951 22.7109 193.543 22.7109C194.031 22.7109 194.451 22.61 194.803 22.4082C195.161 22.1999 195.454 21.9167 195.682 21.5586C195.916 21.2005 196.089 20.7904 196.199 20.3281C196.31 19.8594 196.365 19.3613 196.365 18.834ZM200.008 18.834V18.6094C200.008 17.8477 200.118 17.1413 200.34 16.4902C200.561 15.8327 200.88 15.263 201.297 14.7812C201.714 14.293 202.218 13.9154 202.811 13.6484C203.403 13.375 204.067 13.2383 204.803 13.2383C205.545 13.2383 206.212 13.375 206.805 13.6484C207.404 13.9154 207.911 14.293 208.328 14.7812C208.751 15.263 209.074 15.8327 209.295 16.4902C209.516 17.1413 209.627 17.8477 209.627 18.6094V18.834C209.627 19.5957 209.516 20.3021 209.295 20.9531C209.074 21.6042 208.751 22.1738 208.328 22.6621C207.911 23.1439 207.407 23.5215 206.814 23.7949C206.229 24.0618 205.564 24.1953 204.822 24.1953C204.08 24.1953 203.413 24.0618 202.82 23.7949C202.228 23.5215 201.72 23.1439 201.297 22.6621C200.88 22.1738 200.561 21.6042 200.34 20.9531C200.118 20.3021 200.008 19.5957 200.008 18.834ZM201.814 18.6094V18.834C201.814 19.3613 201.876 19.8594 202 20.3281C202.124 20.7904 202.309 21.2005 202.557 21.5586C202.811 21.9167 203.126 22.1999 203.504 22.4082C203.882 22.61 204.321 22.7109 204.822 22.7109C205.317 22.7109 205.75 22.61 206.121 22.4082C206.499 22.1999 206.811 21.9167 207.059 21.5586C207.306 21.2005 207.492 20.7904 207.615 20.3281C207.745 19.8594 207.811 19.3613 207.811 18.834V18.6094C207.811 18.0885 207.745 17.597 207.615 17.1348C207.492 16.666 207.303 16.2526 207.049 15.8945C206.801 15.5299 206.489 15.2435 206.111 15.0352C205.74 14.8268 205.304 14.7227 204.803 14.7227C204.308 14.7227 203.872 14.8268 203.494 15.0352C203.123 15.2435 202.811 15.5299 202.557 15.8945C202.309 16.2526 202.124 16.666 202 17.1348C201.876 17.597 201.814 18.0885 201.814 18.6094ZM216.854 19.3516H213.387L213.367 17.9062H216.199C216.759 17.9062 217.225 17.8509 217.596 17.7402C217.973 17.6296 218.257 17.4635 218.445 17.2422C218.634 17.0208 218.729 16.7474 218.729 16.4219C218.729 16.168 218.673 15.9466 218.562 15.7578C218.458 15.5625 218.299 15.403 218.084 15.2793C217.869 15.1491 217.602 15.0547 217.283 14.9961C216.971 14.931 216.603 14.8984 216.18 14.8984H213.865V24H212.059V13.4336H216.18C216.85 13.4336 217.452 13.4922 217.986 13.6094C218.527 13.7266 218.986 13.9056 219.363 14.1465C219.747 14.3809 220.04 14.6803 220.242 15.0449C220.444 15.4095 220.545 15.8392 220.545 16.334C220.545 16.653 220.48 16.9557 220.35 17.2422C220.219 17.5286 220.027 17.7826 219.773 18.0039C219.52 18.2253 219.207 18.4076 218.836 18.5508C218.465 18.6875 218.038 18.7754 217.557 18.8145L216.854 19.3516ZM216.854 24H212.732L213.631 22.5352H216.854C217.355 22.5352 217.771 22.4733 218.104 22.3496C218.436 22.2194 218.683 22.0371 218.846 21.8027C219.015 21.5618 219.1 21.2754 219.1 20.9434C219.1 20.6113 219.015 20.3281 218.846 20.0938C218.683 19.8529 218.436 19.6706 218.104 19.5469C217.771 19.4167 217.355 19.3516 216.854 19.3516H214.109L214.129 17.9062H217.557L218.211 18.4531C218.79 18.4987 219.282 18.6419 219.686 18.8828C220.089 19.1237 220.395 19.4297 220.604 19.8008C220.812 20.1654 220.916 20.5625 220.916 20.9922C220.916 21.487 220.822 21.9232 220.633 22.3008C220.451 22.6784 220.184 22.9941 219.832 23.248C219.48 23.4954 219.054 23.6842 218.553 23.8145C218.051 23.9382 217.485 24 216.854 24Z" fill="white"/>
</svg>
