<svg width="34" height="34" viewBox="0 0 34 34" fill="none" xmlns="http://www.w3.org/2000/svg">
<path d="M28.4939 20.0789L34 17L28.4939 13.9211L31.7239 8.5L25.415 8.585L25.5 2.27611L20.0789 5.50611L17 0L13.9211 5.50611L8.5 2.27611L8.585 8.585L2.27611 8.5L5.50611 13.9211L0 17L5.50611 20.0789L2.27611 25.5L8.585 25.415L8.5 31.7239L13.9211 28.4939L17 34L20.0789 28.4939L25.5 31.7239L25.415 25.415L31.7239 25.5L28.4939 20.0789ZM24.3856 29.7878L19.6633 26.9544L17 31.7711L14.3272 26.9922L9.605 29.8256L9.68056 24.3478L4.20278 24.4233L7.03611 19.7011L2.22889 17L7.01722 14.3272L4.18389 9.605L9.66167 9.68056L9.58611 4.20278L14.3083 7.03611L17 2.22889L19.6728 7.00778L24.395 4.17444L24.3194 9.65222L29.7972 9.57667L26.9639 14.2989L31.7711 17L26.9922 19.6728L29.8256 24.395L24.3478 24.3194L24.3856 29.7878ZM25.5 15.385C25.1842 15.2819 24.8945 15.1117 24.6507 14.8861C24.4069 14.6605 24.2147 14.3849 24.0873 14.0781C23.9599 13.7714 23.9004 13.4407 23.9127 13.1087C23.9251 12.7768 24.0091 12.4515 24.1589 12.155C24.3616 11.8482 24.4836 11.4951 24.5133 11.1285C24.543 10.7619 24.4796 10.3938 24.3289 10.0583C23.9228 9.41611 23.0256 9.33111 21.8733 9.87889C21.5436 10.039 21.1821 10.1229 20.8156 10.1244C20.3234 10.1242 19.8442 9.96632 19.4482 9.67401C19.0522 9.38169 18.7602 8.97027 18.615 8.5C18.1333 7.14944 17.4722 6.86611 17 6.86611C16.5278 6.86611 15.8667 7.14944 15.385 8.5C15.2401 8.9624 14.9531 9.36736 14.5648 9.65729C14.1765 9.94723 13.7067 10.1074 13.2222 10.115C12.8556 10.1138 12.4941 10.0298 12.1644 9.86944C11.0122 9.32167 10.115 9.41611 9.70889 10.0489C9.55821 10.3844 9.49478 10.7525 9.5245 11.1191C9.55422 11.4856 9.67613 11.8387 9.87889 12.1456C10.0298 12.4449 10.1135 12.7735 10.1243 13.1086C10.1351 13.4436 10.0727 13.7769 9.94144 14.0854C9.81016 14.3938 9.61317 14.6699 9.36421 14.8943C9.11526 15.1188 8.82033 15.2862 8.5 15.385C7.14944 15.8667 6.86611 16.5278 6.86611 17C6.86611 17.4722 7.14944 18.1333 8.5 18.615C8.81575 18.7181 9.10547 18.8883 9.3493 19.1139C9.59314 19.3395 9.78533 19.6151 9.91271 19.9219C10.0401 20.2286 10.0996 20.5593 10.0873 20.8913C10.0749 21.2232 9.99094 21.5485 9.84111 21.845C9.63835 22.1518 9.51645 22.5049 9.48673 22.8715C9.457 23.2381 9.52043 23.6062 9.67111 23.9417C10.0772 24.5839 10.9744 24.6689 12.1267 24.1211C12.4688 23.959 12.8437 23.8782 13.2222 23.885C13.7067 23.8926 14.1765 24.0528 14.5648 24.3427C14.9531 24.6326 15.2401 25.0376 15.385 25.5C15.8667 26.8506 16.5278 27.1339 17 27.1339C17.4722 27.1339 18.1333 26.8506 18.615 25.5C18.7599 25.0376 19.0469 24.6326 19.4352 24.3427C19.8235 24.0528 20.2933 23.8926 20.7778 23.885C21.1443 23.8869 21.5057 23.9708 21.8356 24.1306C22.9878 24.6783 23.885 24.5839 24.2911 23.9511C24.4418 23.6156 24.5052 23.2475 24.4755 22.8809C24.4458 22.5144 24.3239 22.1613 24.1211 21.8544C23.9702 21.5551 23.8865 21.2265 23.8757 20.8914C23.8649 20.5564 23.9273 20.2231 24.0586 19.9146C24.1898 19.6062 24.3868 19.3301 24.6358 19.1057C24.8847 18.8812 25.1797 18.7138 25.5 18.615C26.8506 18.1333 27.1339 17.4722 27.1339 17C27.1339 16.5278 26.8128 15.8667 25.5 15.385ZM25.1222 17.5478C24.6579 17.7042 24.2324 17.9583 23.8746 18.2929C23.5167 18.6276 23.2348 19.0351 23.0477 19.488C22.8607 19.9409 22.7729 20.4286 22.7902 20.9182C22.8076 21.4079 22.9297 21.8882 23.1483 22.3267C23.4694 22.9972 23.4128 23.2711 23.3844 23.3372C23.3379 23.3488 23.2893 23.3488 23.2428 23.3372C22.9381 23.3159 22.6417 23.2289 22.3739 23.0822C21.8745 22.8504 21.3282 22.7373 20.7778 22.7517C20.0631 22.7541 19.3672 22.9805 18.7878 23.3989C18.2085 23.8173 17.7748 24.4068 17.5478 25.0844C17.3022 25.7739 17.0472 25.9533 17 25.9628C16.9528 25.9722 16.6978 25.7739 16.4522 25.0844C16.2252 24.4068 15.7915 23.8173 15.2122 23.3989C14.6328 22.9805 13.9369 22.7541 13.2222 22.7517C12.6887 22.7548 12.1627 22.8774 11.6828 23.1106C11.4149 23.2573 11.1185 23.3443 10.8139 23.3656C10.7673 23.3764 10.7188 23.3764 10.6722 23.3656C10.6722 23.3656 10.5872 23.0256 10.9083 22.355C11.127 21.9165 11.2491 21.4363 11.2664 20.9466C11.2838 20.4569 11.196 19.9692 11.0089 19.5163C10.8219 19.0635 10.5399 18.656 10.1821 18.3213C9.82423 17.9866 9.3988 17.7325 8.93444 17.5761C8.23556 17.3306 8.05611 17.0756 8.05611 17.0283C8.05611 16.9811 8.23556 16.7261 8.93444 16.4806C9.3988 16.3242 9.82423 16.0701 10.1821 15.7354C10.5399 15.4007 10.8219 14.9932 11.0089 14.5403C11.196 14.0875 11.2838 13.5998 11.2664 13.1101C11.2491 12.6204 11.127 12.1402 10.9083 11.7017C10.5872 11.0311 10.6439 10.7572 10.6722 10.6911C10.7188 10.6799 10.7673 10.6799 10.8139 10.6911C11.1184 10.713 11.4147 10.7999 11.6828 10.9461C12.1627 11.1793 12.6887 11.3019 13.2222 11.305C13.9369 11.3025 14.6328 11.0762 15.2122 10.6578C15.7915 10.2393 16.2252 9.64986 16.4522 8.97222C16.6978 8.27333 16.9528 8.09389 17 8.09389C17.0472 8.09389 17.3022 8.27333 17.5478 8.97222C17.7843 9.63928 18.2221 10.2165 18.8007 10.6242C19.3792 11.0318 20.07 11.2499 20.7778 11.2483C21.3106 11.2485 21.8367 11.1291 22.3172 10.8989C22.5852 10.7524 22.8815 10.6655 23.1861 10.6439C23.2327 10.6327 23.2812 10.6327 23.3278 10.6439C23.3278 10.6439 23.4128 10.9839 23.0917 11.6544C22.873 12.0929 22.7509 12.5732 22.7335 13.0629C22.7162 13.5525 22.804 14.0402 22.9911 14.4931C23.1781 14.946 23.4601 15.3535 23.8179 15.6882C24.1758 16.0229 24.6012 16.277 25.0656 16.4333C25.7644 16.6789 25.9439 16.9339 25.9439 16.9811C25.9439 17.0283 25.7833 17.3022 25.0844 17.5478H25.1222ZM17 11.7206C15.9558 11.7206 14.9351 12.0302 14.0669 12.6103C13.1987 13.1904 12.522 14.015 12.1224 14.9796C11.7228 15.9443 11.6183 17.0059 11.822 18.03C12.0257 19.0541 12.5285 19.9948 13.2669 20.7331C14.0052 21.4715 14.9459 21.9743 15.97 22.178C16.9941 22.3817 18.0557 22.2772 19.0204 21.8776C19.985 21.478 20.8096 20.8013 21.3897 19.9331C21.9698 19.0649 22.2794 18.0442 22.2794 17C22.2769 15.6006 21.7199 14.2592 20.7304 13.2696C19.7408 12.2801 18.3994 11.7231 17 11.7206ZM17 21.165C16.1694 21.165 15.3576 20.9183 14.6674 20.4563C13.9772 19.9942 13.4398 19.3377 13.1232 18.5698C12.8067 17.8019 12.7253 16.9573 12.8894 16.1431C13.0535 15.3289 13.4557 14.5818 14.045 13.9965C14.6343 13.4112 15.3841 13.0141 16.1994 12.8555C17.0147 12.6969 17.8587 12.784 18.6244 13.1057C19.3902 13.4275 20.0431 13.9693 20.5004 14.6626C20.9578 15.3559 21.1989 16.1695 21.1933 17C21.1908 18.1114 20.7482 19.1765 19.9624 19.9624C19.1765 20.7482 18.1114 21.1908 17 21.1933V21.165Z" fill="white"/>
</svg>
