<svg width="117" height="33" viewBox="0 0 117 33" fill="none" xmlns="http://www.w3.org/2000/svg">
<path d="M15.9221 32.3443C24.7157 32.3443 31.8443 25.2157 31.8443 16.4221C31.8443 7.62859 24.7157 0.5 15.9221 0.5C7.12859 0.5 0 7.62859 0 16.4221C0 25.2157 7.12859 32.3443 15.9221 32.3443Z" fill="url(#paint0_linear_1248_1202)"/>
<path d="M24.6457 18.7206L28.8456 16.3702L24.6457 14.0198L27.107 9.88074L22.2953 9.94514L22.3597 5.13347L18.2242 7.59476L15.8738 3.39484L13.5234 7.59476L9.38435 5.13347L9.44874 9.94514L4.63708 9.88074L7.09836 14.0198L2.89844 16.3702L7.09836 18.7206L4.63708 22.8561L9.45232 22.7917L9.38435 27.607L13.5234 25.1421L15.8738 29.342L18.2242 25.1421L22.3597 27.607L22.2953 22.7917L27.107 22.8561L24.6457 18.7206ZM21.5083 26.1331L17.9309 23.9866L15.8738 27.6428L13.8311 23.9938L10.2537 26.1402L10.3109 21.9582L6.09667 22.0047L8.24314 18.4273L4.59772 16.3702L8.24314 14.3275L6.09667 10.7501L10.2787 10.8073L10.2358 6.59307L13.8132 8.73954L15.8559 5.08697L17.9022 8.73954L21.4797 6.59307L21.4224 10.7751L25.6081 10.7179L23.4616 14.2953L27.1142 16.338L23.4938 18.3986L25.6403 21.9761L21.4582 21.9224L21.5083 26.1331ZM22.3347 15.136C22.094 15.0575 21.8732 14.9278 21.6873 14.756C21.5014 14.5842 21.3549 14.3742 21.2577 14.1404C21.1605 13.9067 21.115 13.6547 21.1243 13.4017C21.1336 13.1487 21.1975 12.9007 21.3115 12.6747C21.6371 11.9914 21.6693 11.4512 21.4403 11.072C21.1327 10.5855 20.4458 10.5175 19.5693 10.9325C19.3173 11.0547 19.0409 11.1183 18.7608 11.1185C18.3935 11.1156 18.0362 10.9978 17.7392 10.7816C17.4421 10.5654 17.2202 10.2616 17.1045 9.91294C16.7467 8.88264 16.2316 8.66799 15.8738 8.66799C15.5161 8.66799 15.0081 8.88264 14.6396 9.91294C14.5239 10.2616 14.3019 10.5654 14.0049 10.7816C13.7079 10.9978 13.3506 11.1156 12.9833 11.1185C12.7041 11.1167 12.429 11.0518 12.1783 10.9289C11.3019 10.5104 10.615 10.5712 10.3073 11.0685C10.0676 11.4477 10.1106 11.9879 10.4361 12.6712C10.5509 12.8971 10.6154 13.1451 10.6252 13.3984C10.6351 13.6516 10.5901 13.9039 10.4932 14.1381C10.3963 14.3722 10.25 14.5826 10.0641 14.7549C9.87828 14.9272 9.65736 15.0572 9.41654 15.136C8.38624 15.4938 8.17159 16.0089 8.17159 16.3702C8.17159 16.7316 8.38624 17.236 9.41654 17.6009C9.65736 17.6797 9.87828 17.8097 10.0641 17.982C10.25 18.1542 10.3963 18.3647 10.4932 18.5988C10.5901 18.833 10.6351 19.0853 10.6252 19.3385C10.6154 19.5917 10.5509 19.8398 10.4361 20.0657C10.1106 20.749 10.0784 21.2892 10.3073 21.6684C10.615 22.155 11.3019 22.2265 12.1783 21.8079C12.4295 21.6866 12.7043 21.6219 12.9833 21.6183C13.3512 21.621 13.709 21.7392 14.0062 21.9561C14.3034 22.1731 14.525 22.4779 14.6396 22.8275C14.9974 23.8542 15.5125 24.0725 15.8738 24.0725C16.2352 24.0725 16.7396 23.8542 17.1045 22.8275C17.2198 22.4776 17.442 22.1727 17.7398 21.9557C18.0376 21.7388 18.396 21.6208 18.7644 21.6183C19.0431 21.6207 19.3179 21.6842 19.5693 21.8044C20.4458 22.2229 21.1327 22.1621 21.4403 21.6648C21.68 21.2856 21.6371 20.749 21.3115 20.0622C21.1975 19.8359 21.1336 19.5877 21.1243 19.3345C21.115 19.0812 21.1604 18.829 21.2576 18.595C21.3547 18.3609 21.5012 18.1506 21.6871 17.9785C21.873 17.8063 22.0939 17.6763 22.3347 17.5973C23.365 17.2395 23.5796 16.7244 23.5796 16.3666C23.5796 16.0089 23.3614 15.5045 22.3347 15.136ZM22.0449 16.7888C21.6907 16.9081 21.3661 17.1019 21.0931 17.3572C20.82 17.6124 20.6047 17.9231 20.4617 18.2684C20.3187 18.6138 20.2512 18.9857 20.2639 19.3593C20.2766 19.7328 20.3691 20.0994 20.5352 20.4342C20.7785 20.9458 20.7356 21.1783 20.7141 21.2069C20.6802 21.2252 20.6415 21.2327 20.6032 21.2284C20.3699 21.2112 20.143 21.1441 19.9378 21.0316C19.5719 20.8545 19.1709 20.7616 18.7644 20.7598C18.2175 20.7619 17.685 20.9356 17.2421 21.2566C16.7992 21.5775 16.4683 22.0294 16.296 22.5485C16.1064 23.0779 15.9132 23.2139 15.8738 23.221C15.8345 23.2282 15.6413 23.0779 15.4517 22.5485C15.2794 22.0294 14.9484 21.5775 14.5055 21.2566C14.0627 20.9356 13.5302 20.7619 12.9833 20.7598C12.5756 20.7616 12.1735 20.8545 11.8063 21.0316C11.6025 21.1443 11.3767 21.2114 11.1444 21.2284C11.1079 21.2366 11.0701 21.2366 11.0335 21.2284C11.0121 21.1962 10.9692 20.9637 11.2124 20.4521C11.3817 20.1165 11.4767 19.7483 11.491 19.3727C11.5053 18.997 11.4386 18.6227 11.2954 18.2752C11.1521 17.9276 10.9358 17.615 10.661 17.3585C10.3861 17.102 10.0593 16.9077 9.70274 16.7888C9.1697 16.5992 9.03375 16.406 9.03018 16.3702C9.0266 16.3345 9.1697 16.1377 9.70274 15.9481C10.0551 15.8284 10.3778 15.635 10.6495 15.3808C10.9213 15.1266 11.1357 14.8174 11.2785 14.4739C11.4214 14.1303 11.4894 13.7602 11.478 13.3883C11.4666 13.0164 11.376 12.6512 11.2124 12.317C10.9692 11.8054 11.0121 11.5729 11.0335 11.5443C11.0687 11.5301 11.1066 11.524 11.1444 11.5264C11.3805 11.5368 11.6113 11.5991 11.8206 11.7088C12.188 11.8849 12.5901 11.9765 12.9976 11.9771C13.5446 11.9755 14.0773 11.802 14.5203 11.481C14.9633 11.16 15.2942 10.7078 15.466 10.1884C15.6556 9.65536 15.8488 9.51942 15.8846 9.51584C15.9203 9.51227 16.1171 9.65179 16.3067 10.1884C16.4795 10.7072 16.8106 11.1588 17.2533 11.4796C17.6961 11.8005 18.2283 11.9745 18.7751 11.9771C19.1826 11.9769 19.5848 11.8852 19.9521 11.7088C20.1573 11.5964 20.3842 11.5293 20.6175 11.5121C20.6542 11.5094 20.691 11.5156 20.7248 11.5299C20.7499 11.5586 20.7892 11.7911 20.5495 12.3027C20.3834 12.6375 20.2909 13.004 20.2782 13.3776C20.2655 13.7512 20.333 14.1231 20.476 14.4684C20.619 14.8138 20.8343 15.1245 21.1074 15.3797C21.3805 15.6349 21.705 15.8287 22.0592 15.9481C22.5923 16.1377 22.7246 16.3309 22.7318 16.3666C22.7389 16.4024 22.578 16.6099 22.0449 16.7888ZM15.8738 12.3384C15.0764 12.3384 14.2969 12.5749 13.6339 13.0179C12.9709 13.4609 12.4541 14.0906 12.1489 14.8273C11.8438 15.564 11.764 16.3747 11.9195 17.1568C12.0751 17.9389 12.4591 18.6573 13.0229 19.2211C13.5868 19.785 14.3052 20.169 15.0873 20.3245C15.8694 20.4801 16.68 20.4003 17.4167 20.0951C18.1534 19.79 18.7831 19.2732 19.2261 18.6102C19.6691 17.9471 19.9056 17.1676 19.9056 16.3702C19.9047 15.3012 19.4796 14.2763 18.7237 13.5204C17.9678 12.7645 16.9428 12.3394 15.8738 12.3384ZM15.8738 19.5685C15.2403 19.5692 14.6207 19.3819 14.0937 19.0304C13.5666 18.6788 13.1556 18.1788 12.9128 17.5936C12.6701 17.0084 12.6064 16.3643 12.7298 15.7429C12.8532 15.1215 13.1582 14.5506 13.6062 14.1026C14.0542 13.6546 14.6251 13.3496 15.2465 13.2262C15.8679 13.1028 16.512 13.1665 17.0972 13.4092C17.6824 13.652 18.1824 14.063 18.534 14.59C18.8855 15.1171 19.0728 15.7367 19.0721 16.3702C19.0664 17.2167 18.7277 18.0269 18.1291 18.6255C17.5305 19.2241 16.7203 19.5628 15.8738 19.5685Z" fill="white"/>
<path d="M39.5316 10.5826V0.5H38.1785V11.7948H38.7819H39.5316H44.8801V10.5826H39.5316Z" fill="white"/>
<path d="M47.0108 11.7947H45.7427V4.00621H47.0108V11.7947ZM46.3676 1.44239C46.2098 1.44299 46.0557 1.49006 45.9248 1.57767C45.7938 1.66528 45.6919 1.78949 45.6319 1.93463C45.572 2.07977 45.5566 2.23932 45.5877 2.39314C45.6189 2.54696 45.6952 2.68815 45.807 2.79889C45.9188 2.90963 46.0611 2.98495 46.216 3.01534C46.3708 3.04573 46.5312 3.02983 46.677 2.96965C46.8228 2.90947 46.9473 2.8077 47.0349 2.67719C47.1226 2.54669 47.1693 2.39329 47.1693 2.23639C47.1693 2.13186 47.1486 2.02837 47.1082 1.93183C47.0679 1.8353 47.0088 1.74764 46.9343 1.67387C46.8598 1.6001 46.7714 1.54168 46.6742 1.50196C46.5769 1.46223 46.4728 1.44199 46.3676 1.44239Z" fill="white"/>
<path d="M56.0932 3.97284H54.6883L52.0552 9.84902L49.422 3.97284H48.0171L51.8053 11.7916V11.7946H52.302L56.0932 3.97284Z" fill="white"/>
<path d="M63.5076 8.0793C63.5076 8.0793 63.8124 6.13067 63.0414 5.16696C62.2703 4.20326 61.356 3.81535 59.7926 3.86687C58.8886 3.88949 58.0221 4.23117 57.3482 4.8308C56.6743 5.43043 56.2369 6.2489 56.1142 7.13983C55.7911 9.30363 56.6841 10.6886 58.1926 11.4977C59.7012 12.3069 62.1149 11.7765 62.6787 11.5311L63.2456 11.2886L63.0475 10.3643C62.1616 10.725 61.2131 10.9093 60.2559 10.9068C59.6939 10.9256 59.1385 10.7816 58.6575 10.4921C58.1764 10.2026 57.7904 9.78017 57.5466 9.27635C57.3945 8.89041 57.3199 8.47859 57.3271 8.06414L63.5076 8.0793ZM58.409 5.32455C58.8565 5.04345 59.3693 4.88207 59.898 4.85605C60.4266 4.83003 60.953 4.94026 61.4261 5.17605C62.5842 5.75185 62.4166 7.07316 62.4166 7.07316H57.3698C57.4144 6.72678 57.5296 6.39307 57.7083 6.09243C57.887 5.79178 58.1254 5.53051 58.409 5.32455Z" fill="white"/>
<path d="M109.181 8.07928C109.181 8.07928 109.486 6.13066 108.714 5.16695C107.943 4.20324 107.032 3.81534 105.469 3.87292C104.565 3.89471 103.699 4.23532 103.026 4.83384C102.352 5.43235 101.914 6.24974 101.79 7.13982C101.464 9.30362 102.357 10.6886 103.866 11.4977C105.374 12.3069 107.791 11.7765 108.355 11.5311L108.919 11.2886L108.721 10.3643C107.835 10.7257 106.886 10.91 105.929 10.9068C105.367 10.9252 104.812 10.781 104.331 10.4915C103.85 10.2021 103.464 9.77992 103.22 9.27634C103.068 8.89045 102.994 8.47845 103.003 8.06413L109.181 8.07928ZM104.082 5.32454C104.53 5.04373 105.044 4.88254 105.573 4.85653C106.102 4.83052 106.628 4.94056 107.102 5.17604C108.257 5.75184 108.093 7.07315 108.093 7.07315H103.043C103.088 6.72696 103.204 6.39351 103.382 6.09296C103.561 5.79241 103.799 5.531 104.082 5.32454Z" fill="white"/>
<path d="M76.8741 4.91239C76.4931 4.22749 75.2406 3.59714 73.6467 4.00323C72.0528 4.40932 71.7176 5.56698 71.7176 5.56698C71.6087 5.28916 71.4697 5.02394 71.3031 4.77602C70.9983 4.26992 70.0383 3.64866 68.4902 3.97899C66.942 4.30932 66.6372 5.24878 66.6372 5.24878C66.6752 4.94439 66.6097 4.63613 66.4513 4.37296C66.3543 4.21128 66.2114 4.08164 66.0407 4.00025C65.8699 3.91886 65.6789 3.88933 65.4913 3.91535C65.1892 3.92335 64.8883 3.95783 64.5923 4.01839V4.92754C64.7111 4.92754 65.1134 4.87602 65.2689 5.07907C65.447 5.37536 65.526 5.72022 65.4944 6.06399V11.822H66.7561V7.46106C66.7123 6.96885 66.8051 6.47412 67.0243 6.03065C67.2224 5.5882 67.8166 4.88209 69.0936 4.91845C70.3705 4.95482 70.721 6.32764 70.721 6.70646V11.7947H71.9858V8.15808C71.9858 6.86405 72.0894 6.5913 72.2357 6.19733C72.402 5.83303 72.6654 5.52097 72.9974 5.29499C73.3295 5.06901 73.7174 4.93774 74.1191 4.91542C75.1583 4.91542 75.5027 5.26696 75.8013 5.79124C76.1 6.31552 76.1061 7.32772 76.1061 7.32772V11.7947H77.3678V7.29135C77.3709 6.09429 77.2429 5.57607 76.8741 4.91239Z" fill="white"/>
<path d="M86.1068 11.0068C85.6832 10.9674 85.671 10.2855 85.671 10.2855V6.261C85.671 4.64573 84.1167 3.86688 82.3186 3.86688C80.5206 3.86688 79.5209 4.47299 79.5209 4.47299L79.7648 5.467C80.8446 4.87935 82.11 4.7264 83.3 5.03969C84.5434 5.34275 84.5525 6.34282 84.5525 6.34282V7.63685C84.2665 7.48305 83.9652 7.35915 83.6535 7.26713C83.1445 7.11257 81.3586 6.84286 80.167 7.48533C78.9754 8.1278 78.948 9.23394 78.948 9.84914C78.948 10.3401 79.3442 11.919 81.7213 11.919C84.0984 11.919 84.7537 10.3855 84.7537 10.3855C84.7537 10.3855 84.778 11.4189 85.2352 11.719C85.6923 12.019 86.6584 11.8553 86.6584 11.8553V11.0068C86.481 11.0231 86.3025 11.0231 86.1251 11.0068H86.1068ZM84.5586 9.13393C84.4873 9.43811 84.3454 9.72145 84.1441 9.96127C83.5037 10.5569 82.6561 10.8828 81.7792 10.8704C80.6882 10.8704 80.1975 10.3128 80.1975 9.53396C80.1975 8.86119 80.7156 8.11265 82.084 8.07628C82.9418 8.03778 83.7948 8.22268 84.5586 8.61268V9.14605V9.13393Z" fill="white"/>
<path d="M94.2524 6.09126C94.2457 5.72955 94.14 5.3765 93.9467 5.07002C93.7534 4.76354 93.4798 4.51522 93.1552 4.35174C92.5351 4.0603 91.8623 3.89589 91.177 3.8683C90.4916 3.84071 89.8077 3.95049 89.1659 4.19112C87.7153 4.70631 87.7945 5.86094 87.7945 6.15793C87.7945 6.45493 87.7427 7.53379 89.5377 7.99443C91.3328 8.45507 92.695 8.16717 93.1369 9.14906C93.5788 10.1309 92.4116 10.8037 91.9179 10.8643C91.4242 10.9249 89.9065 11.0098 89.3671 10.5401C89.2168 10.4284 89.0926 10.2859 89.0026 10.1222C88.9127 9.95853 88.8593 9.77754 88.8459 9.59152H87.5659C87.5659 9.59152 87.6055 11.5159 89.9278 11.8523C92.2501 12.1887 93.6672 11.4038 94.1609 10.6401C94.6546 9.87639 94.551 8.64902 93.8988 8.12777C93.2466 7.60652 92.6249 7.455 90.9823 7.24589C89.3396 7.03679 88.9983 6.60645 88.9983 6.17612C88.9983 5.74578 89.0806 5.24878 89.9126 4.99724C90.7569 4.73695 91.6689 4.80296 92.4665 5.18211C93.1704 5.56395 93.076 6.09126 93.076 6.09126H94.2524Z" fill="white"/>
<path d="M100.995 10.5733L101.136 11.5552C100.446 11.7779 99.7272 11.9004 99.0022 11.9189C98.6316 11.937 98.2625 11.8594 97.9309 11.6937C97.5992 11.5281 97.3164 11.2799 97.1097 10.9734C96.7843 10.4234 96.6226 9.79283 96.6434 9.15505V5.079L94.9246 5.00627V4.16984H96.7074L96.8171 1.74542H97.8899V4.16984H100.739V5.079H97.8624V9.0005C97.8624 10.0006 98.1977 10.5461 98.8864 10.8188C99.5752 11.0916 100.995 10.5733 100.995 10.5733Z" fill="white"/>
<path d="M110.404 4.00322V4.8548C110.404 4.8548 111.361 4.64569 111.361 5.54879V11.7947H112.64V7.09739C112.615 6.72962 112.697 6.36244 112.877 6.03991C113.056 5.71738 113.326 5.4532 113.652 5.27907C114.442 4.78207 115.447 5.08815 115.786 5.20331C116.016 5.2959 116.233 5.41817 116.432 5.56697L116.767 4.47295C116.216 4.07421 115.55 3.86178 114.868 3.86685C113.695 3.86685 113.344 4.23354 113.098 4.43659C112.896 4.63959 112.716 4.86304 112.561 5.1033C112.561 5.1033 112.561 4.36082 112.037 4.07899C111.513 3.79715 110.565 3.98504 110.404 4.00322Z" fill="white"/>
<path d="M46.0955 17.5323V28.5725H45.2849V18.2687H38.6076V28.5725H37.8152V17.5323H46.0955Z" fill="white"/>
<path d="M49.9064 22.4993C50.516 21.2386 51.6039 20.7809 52.9357 20.7809C55.1727 20.7809 56.41 22.6417 56.41 24.7388C56.41 28.3512 52.7773 29.7695 50.01 27.7208V32.5H49.2664V23.2872C49.2664 22.1356 49.3609 21.3477 48.2821 21.5204L48.2485 20.89C49.5194 20.687 49.9156 21.2204 49.9156 22.278L49.9064 22.4993ZM50.0009 26.9299C52.3323 28.8724 55.6329 27.9875 55.6329 24.7388C55.6329 23.0357 54.682 21.4901 52.8077 21.4901C51.1285 21.4901 50.0497 22.7993 50.0009 24.3933V26.9299Z" fill="white"/>
<path d="M60.5351 28.6966C59.2033 28.6966 57.8228 27.8451 57.8228 26.3934C57.8228 24.6751 59.249 23.8387 60.7881 23.8387C61.7736 23.8311 62.7466 24.0587 63.6254 24.5024V23.3356C63.6254 21.8537 62.2631 21.4749 61.041 21.4749C60.186 21.4595 59.3409 21.6597 58.5847 22.0568L58.4079 21.4264C59.2529 21.0012 60.1885 20.785 61.1355 20.7961C62.7873 20.7961 64.3568 21.4597 64.3568 23.3508L64.3416 26.8207C64.3416 27.7299 64.2928 28.2572 65.3076 28.1299L65.3381 28.6512C64.0398 28.8542 63.7046 28.3966 63.7534 27.1996C63.1499 28.3027 61.8029 28.6966 60.5351 28.6966ZM63.6254 25.1782C62.7829 24.7248 61.8405 24.4864 60.8825 24.4842C59.7397 24.4842 58.5207 25.1146 58.5664 26.3753C58.6151 27.542 59.5995 28.0633 60.6601 28.0633C61.8974 28.0633 63.2932 27.5117 63.6254 26.2025V25.1782Z" fill="white"/>
<path d="M69.0219 24.2691C71.2588 24.2691 72.4322 23.2296 72.4322 20.9355H73.1605C73.1758 22.6871 72.5114 24.0751 70.7834 24.5933L73.5567 28.4603V28.5542H72.7339L70.0855 24.8327C69.7296 24.8975 69.3684 24.929 69.0067 24.9267H67.7663V28.5633H67.0044V20.9537H67.7663V24.2691H69.0219Z" fill="white"/>
<path d="M77.2733 28.5723V21.6324H74.3689V20.9688H80.9212V21.6324H78.0016V28.5723H77.2733Z" fill="white"/>
<path d="M82.8409 28.5723H82.5728V20.9688H83.3103V25.069L83.2127 27.1662L88.6984 20.9688H88.9849V28.5723H88.2535V23.9962L88.3327 22.3416L82.8409 28.5723Z" fill="white"/>
<path d="M93.5976 24.2691C95.8345 24.2691 97.0078 23.2296 97.0078 20.9355H97.7362C97.7362 22.6871 97.0871 24.0751 95.3591 24.5933L98.1172 28.4421V28.536H97.3096L94.6612 24.8146C94.3053 24.8793 93.9441 24.9108 93.5823 24.9085H92.3267V28.5451H91.5679V20.9537H92.3267V24.2691H93.5976Z" fill="white"/>
<path d="M103.195 29.0119C102.433 30.8302 101.671 33.2243 99.2149 32.1363L99.3581 31.5666C100.943 32.2788 101.516 31.1726 102.037 29.8816L102.561 28.6694L98.9924 21.0476V20.984H99.8031L102.942 27.7663H102.957L105.862 20.984H106.639V21.0476L103.195 29.0119Z" fill="white"/>
<path d="M112.129 26.5207L109.194 22.672V28.5391H108.466V20.9628H108.752L112.178 25.457L115.634 20.9628H115.92V28.5391H115.174V22.672L112.227 26.5207H112.129Z" fill="white"/>
<defs>
<linearGradient id="paint0_linear_1248_1202" x1="15.8898" y1="0.593385" x2="15.9509" y2="32.4341" gradientUnits="userSpaceOnUse">
<stop stop-color="#0075E0"/>
<stop offset="0.23" stop-color="#0170DC"/>
<stop offset="0.52" stop-color="#0461D1"/>
<stop offset="0.84" stop-color="#0948BF"/>
<stop offset="1" stop-color="#0C38B4"/>
</linearGradient>
</defs>
</svg>
