<svg width="295" height="40" viewBox="0 0 295 40" fill="none" xmlns="http://www.w3.org/2000/svg">
<path d="M20.3722 40C31.6235 40 40.7445 31.0457 40.7445 20C40.7445 8.95431 31.6235 0 20.3722 0C9.12097 0 0 8.95431 0 20C0 31.0457 9.12097 40 20.3722 40Z" fill="url(#paint0_linear_1225_93)"/>
<path d="M31.6866 22.9641L37.0818 20L31.6866 17.0359L34.8484 11.8159L28.6673 11.8971L28.75 5.829L23.4375 8.93299L20.4182 3.63635L17.3989 8.93299L12.0818 5.829L12.1645 11.8971L5.98346 11.8159L9.14522 17.0359L3.75 20L9.14522 22.9641L5.98346 28.1795L12.1691 28.0983L12.0818 34.171L17.3989 31.0625L20.4182 36.3591L23.4375 31.0625L28.75 34.171L28.6673 28.0983L34.8484 28.1795L31.6866 22.9641ZM27.6563 32.3122L23.0607 29.6052L20.4182 34.2161L17.7941 29.6142L13.1985 32.3212L13.2721 27.0471L7.85846 27.1058L10.6158 22.5942L5.9329 20L10.6158 17.4239L7.85846 12.9122L13.2307 12.9844L13.1756 7.66974L17.7711 10.3767L20.3952 5.77035L23.0239 10.3767L27.6195 7.66974L27.546 12.9438L32.9228 12.8716L30.1654 17.3832L34.8575 19.9594L30.2068 22.5581L32.9642 27.0697L27.5919 27.002L27.6563 32.3122ZM28.7178 18.4435C28.4087 18.3444 28.125 18.1809 27.8862 17.9642C27.6474 17.7475 27.4592 17.4827 27.3343 17.1879C27.2095 16.8931 27.1511 16.5753 27.163 16.2563C27.1749 15.9372 27.257 15.6245 27.4035 15.3395C27.8217 14.4778 27.8631 13.7965 27.5689 13.3183C27.1737 12.7047 26.2914 12.619 25.1654 13.1423C24.8417 13.2964 24.4866 13.3766 24.1268 13.3769C23.6549 13.3732 23.196 13.2246 22.8144 12.9519C22.4329 12.6793 22.1478 12.2963 21.9991 11.8565C21.5395 10.5572 20.8778 10.2865 20.4182 10.2865C19.9586 10.2865 19.3061 10.5572 18.8327 11.8565C18.6841 12.2963 18.399 12.6793 18.0174 12.9519C17.6358 13.2246 17.1769 13.3732 16.705 13.3769C16.3464 13.3746 15.9929 13.2928 15.671 13.1378C14.545 12.61 13.6627 12.6867 13.2675 13.3138C12.9596 13.792 13.0147 14.4733 13.4329 15.335C13.5803 15.6199 13.6632 15.9327 13.6759 16.2521C13.6885 16.5714 13.6307 16.8896 13.5062 17.1849C13.3818 17.4802 13.1938 17.7456 12.955 17.9629C12.7163 18.1801 12.4325 18.3441 12.1232 18.4435C10.7996 18.8946 10.5239 19.5443 10.5239 20C10.5239 20.4557 10.7996 21.0918 12.1232 21.552C12.4325 21.6514 12.7163 21.8154 12.955 22.0326C13.1938 22.2498 13.3818 22.5152 13.5062 22.8105C13.6307 23.1058 13.6885 23.4241 13.6759 23.7434C13.6632 24.0627 13.5803 24.3756 13.4329 24.6605C13.0147 25.5222 12.9733 26.2035 13.2675 26.6817C13.6627 27.2953 14.545 27.3855 15.671 26.8576C15.9937 26.7046 16.3466 26.623 16.705 26.6185C17.1776 26.6219 17.6373 26.7709 18.0191 27.0445C18.4008 27.3181 18.6854 27.7025 18.8327 28.1435C19.2923 29.4383 19.954 29.7135 20.4182 29.7135C20.8824 29.7135 21.5303 29.4383 21.9991 28.1435C22.1472 27.7022 22.4327 27.3176 22.8152 27.044C23.1978 26.7705 23.6582 26.6216 24.1314 26.6185C24.4894 26.6215 24.8424 26.7015 25.1654 26.8531C26.2914 27.381 27.1737 27.3043 27.5689 26.6772C27.8768 26.1989 27.8217 25.5222 27.4035 24.656C27.257 24.3706 27.1749 24.0576 27.1629 23.7383C27.151 23.4189 27.2094 23.1008 27.3342 22.8057C27.459 22.5105 27.6472 22.2453 27.886 22.0282C28.1248 21.811 28.4085 21.647 28.7178 21.5475C30.0414 21.0963 30.3171 20.4466 30.3171 19.9955C30.3171 19.5443 30.0368 18.9082 28.7178 18.4435ZM28.3456 20.5278C27.8906 20.6784 27.4736 20.9228 27.1228 21.2446C26.772 21.5665 26.4955 21.9583 26.3118 22.3939C26.128 22.8294 26.0414 23.2985 26.0577 23.7696C26.074 24.2407 26.1929 24.7029 26.4063 25.1252C26.7188 25.7703 26.6636 26.0636 26.636 26.0997C26.5924 26.1227 26.5428 26.1322 26.4936 26.1268C26.1938 26.105 25.9023 26.0204 25.6388 25.8786C25.1687 25.6553 24.6537 25.5381 24.1314 25.5357C23.4288 25.5384 22.7448 25.7576 22.1759 26.1623C21.607 26.567 21.1818 27.1369 20.9605 27.7915C20.7169 28.4593 20.4688 28.6307 20.4182 28.6397C20.3677 28.6488 20.1195 28.4593 19.8759 27.7915C19.6546 27.1369 19.2294 26.567 18.6605 26.1623C18.0916 25.7576 17.4076 25.5384 16.705 25.5357C16.1813 25.538 15.6647 25.6552 15.193 25.8786C14.9312 26.0207 14.6412 26.1054 14.3428 26.1268C14.2959 26.1371 14.2473 26.1371 14.2004 26.1268C14.1728 26.0862 14.1176 25.7929 14.4301 25.1477C14.6476 24.7245 14.7696 24.2602 14.788 23.7864C14.8064 23.3127 14.7207 22.8407 14.5367 22.4024C14.3527 21.9641 14.0748 21.5698 13.7217 21.2463C13.3687 20.9229 12.9489 20.6778 12.4908 20.5278C11.8061 20.2887 11.6314 20.0451 11.6268 20C11.6222 19.9549 11.8061 19.7067 12.4908 19.4676C12.9434 19.3167 13.358 19.0728 13.7071 18.7522C14.0561 18.4316 14.3316 18.0417 14.5151 17.6084C14.6986 17.1751 14.7859 16.7084 14.7713 16.2394C14.7566 15.7704 14.6403 15.3098 14.4301 14.8883C14.1176 14.2432 14.1728 13.9499 14.2004 13.9138C14.2455 13.896 14.2942 13.8882 14.3428 13.8913C14.646 13.9045 14.9426 13.983 15.2114 14.1213C15.6834 14.3434 16.2 14.459 16.7233 14.4597C17.4261 14.4577 18.1104 14.2388 18.6795 13.834C19.2486 13.4292 19.6735 12.8589 19.8943 12.2039C20.1379 11.5317 20.386 11.3602 20.432 11.3557C20.4779 11.3512 20.7307 11.5272 20.9743 12.2039C21.1962 12.8582 21.6215 13.4277 22.1903 13.8323C22.7591 14.237 23.4428 14.4564 24.1452 14.4597C24.6686 14.4594 25.1853 14.3438 25.6572 14.1213C25.9207 13.9795 26.2122 13.8949 26.512 13.8732C26.5591 13.8699 26.6063 13.8776 26.6498 13.8958C26.682 13.9319 26.7325 14.2251 26.4246 14.8703C26.2112 15.2925 26.0924 15.7548 26.0761 16.2259C26.0598 16.697 26.1464 17.1661 26.3301 17.6016C26.5139 18.0371 26.7904 18.429 27.1412 18.7508C27.492 19.0727 27.909 19.3171 28.364 19.4676C29.0487 19.7067 29.2188 19.9504 29.2279 19.9955C29.2371 20.0406 29.0303 20.3023 28.3456 20.5278ZM20.4182 14.9154C19.3938 14.9154 18.3925 15.2136 17.5408 15.7723C16.6891 16.331 16.0252 17.1251 15.6332 18.0542C15.2412 18.9833 15.1386 20.0056 15.3385 20.9919C15.5383 21.9783 16.0316 22.8842 16.7559 23.5953C17.4803 24.3064 18.4031 24.7907 19.4078 24.9869C20.4125 25.1831 21.4538 25.0824 22.4002 24.6975C23.3466 24.3127 24.1555 23.661 24.7246 22.8248C25.2937 21.9887 25.5974 21.0056 25.5974 20C25.5962 18.6518 25.0502 17.3592 24.0791 16.406C23.1081 15.4527 21.7914 14.9166 20.4182 14.9154ZM20.4182 24.0334C19.6043 24.0343 18.8085 23.7981 18.1314 23.3547C17.4543 22.9114 16.9264 22.2808 16.6145 21.5428C16.3026 20.8048 16.2208 19.9925 16.3794 19.2088C16.5379 18.4251 16.9297 17.7052 17.5052 17.1403C18.0807 16.5753 18.814 16.1906 19.6123 16.0349C20.4106 15.8793 21.238 15.9596 21.9897 16.2658C22.7415 16.572 23.3838 17.0902 23.8354 17.755C24.287 18.4197 24.5276 19.201 24.5267 20C24.5194 21.0675 24.0843 22.0893 23.3153 22.8442C22.5464 23.5991 21.5056 24.0263 20.4182 24.0334Z" fill="white"/>
<path d="M52.4598 26.6908V11.6807H50.4193V28.4955H51.3292H52.4598H60.525V26.6908H52.4598Z" fill="white"/>
<path d="M63.7375 28.4954H61.8257V16.9005H63.7375V28.4954ZM62.7678 13.0837C62.5299 13.0846 62.2975 13.1547 62.1001 13.2851C61.9027 13.4155 61.7491 13.6004 61.6587 13.8165C61.5683 14.0326 61.5451 14.2701 61.5921 14.4991C61.639 14.7281 61.7541 14.9383 61.9226 15.1031C62.0912 15.268 62.3058 15.3801 62.5392 15.4254C62.7726 15.4706 63.0145 15.447 63.2342 15.3574C63.454 15.2678 63.6417 15.1163 63.7738 14.922C63.9059 14.7277 63.9764 14.4993 63.9764 14.2657C63.9764 14.1101 63.9452 13.956 63.8844 13.8123C63.8236 13.6686 63.7345 13.5381 63.6222 13.4283C63.5099 13.3185 63.3766 13.2315 63.23 13.1724C63.0834 13.1132 62.9263 13.0831 62.7678 13.0837Z" fill="white"/>
<path d="M77.4322 16.851H75.3137L71.3431 25.599L67.3725 16.851H65.2539L70.9662 28.4909V28.4954H71.7153L77.4322 16.851Z" fill="white"/>
<path d="M88.6137 22.9641C88.6137 22.9641 89.0732 20.0632 87.9105 18.6285C86.7479 17.1938 85.3692 16.6163 83.0116 16.693C81.6484 16.7267 80.3419 17.2353 79.3256 18.128C78.3094 19.0207 77.6498 20.2392 77.4648 21.5655C76.9776 24.7868 78.3241 26.8486 80.599 28.0532C82.8738 29.2578 86.5135 28.4683 87.3637 28.1029L88.2184 27.7419L87.9197 26.3659C86.5839 26.9029 85.1537 27.1773 83.7102 27.1735C82.8628 27.2016 82.0253 26.987 81.2999 26.5561C80.5745 26.1251 79.9924 25.4963 79.6247 24.7462C79.3954 24.1717 79.283 23.5586 79.2938 22.9416L88.6137 22.9641ZM80.9252 18.8631C81.6 18.4446 82.3734 18.2043 83.1705 18.1656C83.9676 18.1269 84.7614 18.291 85.4749 18.642C87.2212 19.4992 86.9684 21.4663 86.9684 21.4663H79.3582C79.4255 20.9506 79.5992 20.4538 79.8686 20.0062C80.138 19.5587 80.4976 19.1697 80.9252 18.8631Z" fill="white"/>
<path d="M157.488 22.9641C157.488 22.9641 157.947 20.0631 156.785 18.6284C155.622 17.1937 154.248 16.6163 151.89 16.702C150.528 16.7344 149.222 17.2415 148.206 18.1325C147.19 19.0236 146.53 20.2404 146.343 21.5655C145.852 24.7868 147.198 26.8486 149.473 28.0532C151.748 29.2578 155.392 28.4683 156.242 28.1028L157.092 27.7419L156.794 26.3659C155.458 26.9039 154.028 27.1783 152.584 27.1734C151.737 27.201 150.9 26.9862 150.174 26.5553C149.449 26.1244 148.867 25.4959 148.499 24.7462C148.27 24.1717 148.159 23.5584 148.172 22.9415L157.488 22.9641ZM149.799 18.863C150.475 18.445 151.249 18.205 152.047 18.1663C152.845 18.1276 153.639 18.2914 154.353 18.642C156.095 19.4992 155.847 21.4663 155.847 21.4663H148.232C148.301 20.9509 148.475 20.4545 148.744 20.007C149.013 19.5596 149.372 19.1704 149.799 18.863Z" fill="white"/>
<path d="M108.77 18.2495C108.195 17.2299 106.306 16.2915 103.903 16.896C101.499 17.5006 100.994 19.224 100.994 19.224C100.83 18.8104 100.62 18.4156 100.369 18.0465C99.9093 17.2931 98.4617 16.3682 96.1272 16.86C93.7926 17.3517 93.333 18.7503 93.333 18.7503C93.3902 18.2972 93.2916 17.8383 93.0527 17.4465C92.9064 17.2058 92.691 17.0128 92.4335 16.8916C92.176 16.7704 91.8879 16.7265 91.6051 16.7652C91.1495 16.7771 90.6958 16.8284 90.2494 16.9186V18.2721C90.4286 18.2721 91.0352 18.1954 91.2696 18.4977C91.5382 18.9388 91.6573 19.4522 91.6097 19.9639V28.536H93.5123V22.0438C93.4463 21.311 93.5862 20.5745 93.9167 19.9143C94.2154 19.2556 95.1115 18.2044 97.0371 18.2586C98.9626 18.3127 99.4911 20.3565 99.4911 20.9204V28.4954H101.398V23.0815C101.398 21.155 101.555 20.749 101.775 20.1625C102.026 19.6201 102.423 19.1555 102.924 18.8191C103.425 18.4827 104.009 18.2873 104.615 18.254C106.182 18.254 106.702 18.7774 107.152 19.5579C107.602 20.3384 107.612 21.8453 107.612 21.8453V28.4954H109.514V21.7911C109.519 20.0091 109.326 19.2376 108.77 18.2495Z" fill="white"/>
<path d="M122.69 27.3224C122.051 27.2638 122.033 26.2487 122.033 26.2487V20.2572C122.033 17.8525 119.689 16.6931 116.977 16.6931C114.266 16.6931 112.759 17.5954 112.759 17.5954L113.126 19.0752C114.755 18.2003 116.663 17.9726 118.457 18.439C120.332 18.8902 120.346 20.379 120.346 20.379V22.3055C119.915 22.0765 119.46 21.8921 118.99 21.7551C118.223 21.525 115.53 21.1235 113.733 22.0799C111.936 23.0364 111.895 24.6831 111.895 25.599C111.895 26.3299 112.492 28.6804 116.077 28.6804C119.661 28.6804 120.649 26.3975 120.649 26.3975C120.649 26.3975 120.686 27.936 121.375 28.3827C122.065 28.8293 123.522 28.5857 123.522 28.5857V27.3224C123.254 27.3466 122.985 27.3466 122.717 27.3224H122.69ZM120.355 24.5342C120.248 24.9871 120.034 25.4089 119.73 25.7659C118.764 26.6527 117.486 27.1378 116.164 27.1194C114.519 27.1194 113.779 26.2893 113.779 25.1298C113.779 24.1282 114.56 23.0138 116.624 22.9597C117.917 22.9024 119.203 23.1776 120.355 23.7582V24.5523V24.5342Z" fill="white"/>
<path d="M134.974 20.0045C134.964 19.4661 134.804 18.9405 134.513 18.4842C134.221 18.0279 133.809 17.6583 133.319 17.4149C132.384 16.981 131.37 16.7362 130.336 16.6952C129.303 16.6541 128.271 16.8175 127.304 17.1758C125.116 17.9427 125.236 19.6617 125.236 20.1038C125.236 20.5459 125.157 22.1521 127.864 22.8378C130.571 23.5236 132.625 23.095 133.292 24.5568C133.958 26.0185 132.198 27.0201 131.453 27.1103C130.709 27.2006 128.42 27.3269 127.607 26.6276C127.38 26.4613 127.193 26.2492 127.057 26.0055C126.922 25.7618 126.841 25.4924 126.821 25.2155H124.891C124.891 25.2155 124.951 28.0803 128.452 28.5811C131.954 29.0819 134.091 27.9134 134.836 26.7765C135.58 25.6396 135.424 23.8123 134.441 23.0364C133.457 22.2604 132.52 22.0348 130.043 21.7235C127.566 21.4122 127.051 20.7715 127.051 20.1309C127.051 19.4902 127.175 18.7503 128.429 18.3759C129.703 17.9883 131.078 18.0866 132.281 18.6511C133.342 19.2195 133.2 20.0045 133.2 20.0045H134.974Z" fill="white"/>
<path d="M145.144 26.6772L145.355 28.139C144.315 28.4704 143.232 28.6528 142.138 28.6804C141.579 28.7073 141.023 28.5918 140.523 28.3452C140.023 28.0985 139.596 27.7291 139.284 27.2727C138.794 26.454 138.55 25.5152 138.581 24.5658V18.4976L135.989 18.3894V17.1441H138.678L138.843 13.5349H140.461V17.1441H144.758V18.4976H140.42V24.3357C140.42 25.8245 140.925 26.6366 141.964 27.0426C143.002 27.4487 145.144 26.6772 145.144 26.6772Z" fill="white"/>
<path d="M159.33 16.896V18.1638C159.33 18.1638 160.773 17.8525 160.773 19.1969V28.4954H162.703V21.5024C162.665 20.9549 162.789 20.4083 163.06 19.9281C163.33 19.4479 163.736 19.0546 164.229 18.7954C165.419 18.0555 166.936 18.5112 167.446 18.6826C167.793 18.8205 168.121 19.0025 168.42 19.224L168.926 17.5953C168.094 17.0017 167.091 16.6855 166.063 16.693C164.293 16.693 163.765 17.2389 163.393 17.5412C163.089 17.8434 162.817 18.1761 162.584 18.5337C162.584 18.5337 162.584 17.4284 161.793 17.0088C161.003 16.5892 159.574 16.869 159.33 16.896Z" fill="white"/>
<path d="M189.179 12.0777V28.5135H187.956V13.174H177.887V28.5135H176.692V12.0777H189.179Z" fill="white"/>
<path d="M194.923 19.4721C195.842 17.5953 197.483 16.9141 199.491 16.9141C202.865 16.9141 204.73 19.6842 204.73 22.8062C204.73 28.1841 199.252 30.2955 195.08 27.2457V34.3605H193.958V20.6452C193.958 18.9308 194.101 17.7577 192.474 18.0149L192.423 17.0765C194.34 16.7742 194.937 17.5682 194.937 19.1428L194.923 19.4721ZM195.066 26.0681C198.581 28.9601 203.558 27.6427 203.558 22.8062C203.558 20.2707 202.125 17.9698 199.298 17.9698C196.766 17.9698 195.139 19.9188 195.066 22.2919V26.0681Z" fill="white"/>
<path d="M210.952 28.6985C208.944 28.6985 206.862 27.4307 206.862 25.2697C206.862 22.7116 209.013 21.4664 211.334 21.4664C212.82 21.4551 214.287 21.7939 215.612 22.4544V20.7174C215.612 18.5113 213.558 17.9473 211.715 17.9473C210.426 17.9244 209.152 18.2224 208.011 18.8135L207.745 17.8751C209.019 17.2421 210.43 16.9202 211.858 16.9367C214.349 16.9367 216.715 17.9247 216.715 20.74L216.692 25.9058C216.692 27.2593 216.619 28.0443 218.149 27.8548L218.195 28.6308C216.237 28.9331 215.732 28.2518 215.805 26.4697C214.896 28.112 212.864 28.6985 210.952 28.6985ZM215.612 23.4605C214.342 22.7855 212.921 22.4306 211.476 22.4273C209.753 22.4273 207.915 23.3658 207.984 25.2426C208.057 26.9796 209.542 27.7556 211.141 27.7556C213.007 27.7556 215.112 26.9344 215.612 24.9854V23.4605Z" fill="white"/>
<path d="M223.751 22.1069C227.125 22.1069 228.894 20.5595 228.894 17.1442H229.992C230.015 19.7519 229.013 21.8182 226.408 22.5897L230.59 28.3465V28.4864H229.349L225.355 22.9461C224.819 23.0425 224.274 23.0893 223.728 23.086H221.858V28.4999H220.709V17.1712H221.858V22.1069H223.751Z" fill="white"/>
<path d="M236.191 28.5132V18.1816H231.812V17.1935H241.692V18.1816H237.29V28.5132H236.191Z" fill="white"/>
<path d="M244.588 28.5132H244.183V17.1935H245.295V23.2978L245.148 26.4198L253.42 17.1935H253.852V28.5132H252.749V21.7006L252.869 19.2373L244.588 28.5132Z" fill="white"/>
<path d="M260.81 22.1069C264.183 22.1069 265.953 20.5595 265.953 17.1442H267.051C267.051 19.7519 266.072 21.8182 263.466 22.5897L267.625 28.3194V28.4593H266.408L262.414 22.919C261.877 23.0154 261.333 23.0623 260.787 23.0589H258.894V28.4728H257.75V17.1712H258.894V22.1069H260.81Z" fill="white"/>
<path d="M275.282 29.1676C274.133 31.8746 272.984 35.4387 269.28 33.8191L269.496 32.9709C271.885 34.0311 272.749 32.3844 273.535 30.4624L274.326 28.6578L268.944 17.3111V17.2163H270.167L274.9 27.3133H274.923L279.303 17.2163H280.475V17.3111L275.282 29.1676Z" fill="white"/>
<path d="M288.751 25.4589L284.326 19.7292V28.4637H283.228V17.1846H283.66L288.825 23.8754L294.036 17.1846H294.468V28.4637H293.342V19.7292L288.899 25.4589H288.751Z" fill="white"/>
<defs>
<linearGradient id="paint0_linear_1225_93" x1="20.3309" y1="0.117302" x2="20.4062" y2="40.1128" gradientUnits="userSpaceOnUse">
<stop stop-color="#0075E0"/>
<stop offset="0.23" stop-color="#0170DC"/>
<stop offset="0.52" stop-color="#0461D1"/>
<stop offset="0.84" stop-color="#0948BF"/>
<stop offset="1" stop-color="#0C38B4"/>
</linearGradient>
</defs>
</svg>
